<svg width="312" height="64" viewBox="0 0 312 64" fill="none" xmlns="http://www.w3.org/2000/svg">
<g clip-path="url(#clip0)">
<path d="M32.7812 31.2411C33.4208 32.539 33.8117 34.2756 33.9361 36.1402C35.6596 34.6412 39.8172 33.8369 43.122 35.1897C39.6573 35.1897 35.3397 37.1091 33.9361 39.1382C33.6696 43.0868 32.4081 46.9989 30.2227 48.4613C39.6395 49.9969 43.4596 37.0543 51.3839 38.078C48.2568 30.0894 36.85 28.3893 32.7812 31.2411Z" fill="#6CA448"/>
<path d="M25.3724 11.4981C14.2321 12.924 5.02844 33.9648 13.2549 61.9705C13.8767 64.1093 15.4403 63.8717 18.2653 63.5609C33.972 61.8608 64.0526 58.5338 65.8827 37.4198C67.0376 24.0933 56.7856 14.5692 44.2061 13.71C43.9218 13.6917 43.6731 13.4724 43.5309 13.2165C41.612 9.41411 34.6827 0.237305 25.1414 0.237305C-2.75379 0.237305 -3.55333 48.0773 4.19336 60.9285C5.9879 63.9082 8.63528 63.5792 7.96011 61.6049C0.977418 41.2039 7.05396 6.56235 25.8699 6.56235C31.8931 6.56235 36.0685 10.4195 40.1373 18.3898C40.2972 18.7189 40.6526 18.8468 41.0079 18.9017C54.6535 20.748 60.0726 29.9065 59.2376 37.5112C58.2781 46.0482 52.095 55.2067 17.7679 59.137C16.1155 55.7369 12.3132 34.2939 18.4253 24.1482C15.618 36.5058 18.4253 47.5655 20.735 51.4775C27.8421 48.5344 30.4895 45.189 30.4895 37.7489C30.5073 26.8171 20.7173 20.5469 25.3724 11.4981Z" fill="#6CA448"/>
<path d="M76.0635 64C75.7081 64 75.4238 63.7075 75.4238 63.3419V0.658098C75.4238 0.292488 75.7081 0 76.0635 0C76.4188 0 76.7031 0.292488 76.7031 0.658098V63.3419C76.7031 63.7075 76.4188 64 76.0635 64Z" fill="#6CA448"/>
<path d="M86.0488 33.6911V32.1738C86.0488 31.863 86.2087 31.6985 86.5108 31.6985H88.1099V15.5568H86.5286C86.2265 15.5568 86.0666 15.3923 86.0666 15.0815V13.4911C86.0666 13.1621 86.2265 12.9975 86.5286 12.9975C88.945 12.8878 91.237 12.833 93.4224 12.833C95.6078 12.833 97.3313 13.2717 98.6283 14.1309C99.9253 14.9901 100.583 16.2149 100.583 17.8236C100.583 18.9935 100.227 19.999 99.5345 20.8581C98.8415 21.7173 98.0242 22.3389 97.0648 22.741C98.6105 22.997 99.801 23.5819 100.618 24.5142C101.436 25.4465 101.844 26.5799 101.844 27.9327C101.844 29.6876 101.205 31.1135 99.9431 32.2103C98.6816 33.3072 96.9937 33.9104 94.8971 34.0567C94.0265 34.1115 92.6406 34.1481 90.7217 34.1481H86.493C86.191 34.1481 86.0488 34.0018 86.0488 33.6911ZM91.4857 15.3557V21.7539H92.6406C95.6256 21.7539 97.1181 20.6936 97.1181 18.5548C97.1181 17.3483 96.7627 16.5257 96.0342 16.0504C95.3058 15.5751 94.2752 15.3557 92.9249 15.3557H91.4857ZM91.4857 24.3497V31.7533H92.8538C94.6306 31.7533 95.9987 31.4608 96.9759 30.8759C97.9531 30.2909 98.4506 29.2854 98.4506 27.8596C98.4506 25.5197 96.8516 24.3497 93.6711 24.3497H91.4857Z" fill="white"/>
<path d="M110.621 34.5133C108.222 34.5133 106.463 33.8004 105.344 32.3562C104.225 30.9121 103.674 29.0109 103.674 26.6344C103.674 24.258 104.26 22.302 105.451 20.7481C106.641 19.1943 108.347 18.4082 110.585 18.4082C111.687 18.4082 112.646 18.6276 113.446 19.048C114.246 19.4685 114.85 20.0534 115.276 20.7664C116.076 22.174 116.484 23.801 116.484 25.6473C116.484 26.5247 116.449 27 116.36 27.0732C116.271 27.1646 116.129 27.2011 115.898 27.2011H107.014C107.121 28.7001 107.476 29.8518 108.08 30.6744C108.702 31.497 109.75 31.8992 111.261 31.8992C112.362 31.8992 113.499 31.625 114.672 31.0949C114.956 30.9486 115.152 31.04 115.276 31.3508L115.845 32.7767C115.951 33.0326 115.862 33.2337 115.578 33.3982C114.281 34.1477 112.611 34.5133 110.621 34.5133ZM107.032 24.9161H113.322C113.357 22.3202 112.38 21.0223 110.354 21.0223C109.164 21.0223 108.329 21.4062 107.831 22.1923C107.334 22.96 107.067 23.8741 107.032 24.9161Z" fill="white"/>
<path d="M127.305 24.9161V23.8192C127.305 22.3385 126.897 21.4245 126.097 21.0589C125.706 20.8944 125.155 20.8029 124.427 20.8029C123.059 20.8029 122.224 21.461 121.939 22.7955C121.886 23.1063 121.726 23.2708 121.478 23.2708H119.576C119.257 23.2708 119.114 23.1063 119.15 22.7955C119.239 21.2782 119.825 20.1814 120.927 19.4685C122.028 18.7555 123.45 18.4082 125.155 18.4082C128.762 18.4082 130.575 20.1083 130.575 23.5085V31.6798H131.872C132.174 31.6798 132.334 31.8444 132.334 32.1551V33.6724C132.334 33.9832 132.174 34.1477 131.872 34.1477H128.3C128.034 34.1477 127.892 33.9832 127.838 33.6724L127.625 32.2465C126.541 33.7638 124.96 34.5133 122.917 34.5133C121.62 34.5133 120.554 34.166 119.719 33.4713C118.866 32.7767 118.457 31.6616 118.457 30.126C118.457 28.1151 119.274 26.7441 120.909 25.9946C122.259 25.3548 123.876 25.0075 125.742 24.9343C126.115 24.9343 126.648 24.9343 127.305 24.9161ZM127.376 29.4496V27.0549C125.44 27.0549 124.249 27.1463 123.805 27.3291C123.361 27.5119 122.97 27.6947 122.632 27.8958C121.993 28.2431 121.673 28.8829 121.673 29.8152C121.673 31.2411 122.473 31.9541 124.054 31.9541C125.102 31.9541 125.919 31.6981 126.506 31.1863C127.074 30.711 127.376 30.1077 127.376 29.4496Z" fill="white"/>
<path d="M148.645 31.6982H149.977C150.279 31.6982 150.439 31.8627 150.439 32.1735V33.6907C150.439 34.0015 150.279 34.166 149.977 34.166H146.584C146.335 34.166 146.193 34.0015 146.122 33.6907L145.855 31.9541C144.558 33.6725 142.87 34.5316 140.774 34.5316C137.504 34.5316 135.87 32.7767 135.87 29.2486V21.3149H134.271C133.969 21.3149 133.809 21.1503 133.809 20.8396V19.2309C133.809 18.9201 133.969 18.7556 134.271 18.7556H138.801C139.103 18.7556 139.263 18.9201 139.263 19.2309V28.3163C139.263 29.5594 139.423 30.4551 139.725 30.967C140.045 31.4971 140.702 31.753 141.715 31.753C142.728 31.753 143.581 31.4422 144.238 30.8207C144.896 30.1992 145.233 29.4862 145.233 28.7002V21.2966H143.332C143.03 21.2966 142.87 21.132 142.87 20.8213V19.2126C142.87 18.9018 143.03 18.7373 143.332 18.7373H148.165C148.467 18.7373 148.627 18.9018 148.627 19.2126V31.6982H148.645Z" fill="white"/>
<path d="M157.35 21.297V29.1393C157.35 30.1082 157.475 30.8211 157.706 31.2598C157.954 31.6986 158.399 31.9179 159.074 31.9179C159.731 31.9179 160.389 31.7717 161.01 31.4792C161.224 31.3878 161.401 31.4792 161.49 31.7351L162.041 33.161C162.059 33.2158 162.077 33.3073 162.077 33.4169C162.077 33.5266 161.97 33.6546 161.775 33.7825C160.815 34.2761 159.66 34.532 158.328 34.532C156.533 34.532 155.36 34.0568 154.792 33.1062C154.383 32.4846 154.152 31.8814 154.099 31.2964C154.01 30.5103 153.974 29.6877 153.974 28.8103V21.3152H152.251C151.949 21.3152 151.789 21.1507 151.789 20.84V19.2313C151.789 18.9205 151.949 18.756 152.251 18.756H153.974V14.5515C153.974 14.2407 154.134 14.0762 154.436 14.0762H156.924C157.226 14.0762 157.386 14.2407 157.386 14.5515V18.756H160.442C160.744 18.756 160.904 18.9205 160.904 19.2313V20.84C160.904 21.1507 160.744 21.3152 160.442 21.3152H157.35V21.297Z" fill="white"/>
<path d="M168.722 31.6988H170.623C170.925 31.6988 171.085 31.8633 171.085 32.1741V33.6914C171.085 34.0021 170.925 34.1667 170.623 34.1667H163.427C163.125 34.1667 162.965 34.0021 162.965 33.6914V32.1741C162.965 31.8633 163.125 31.6988 163.427 31.6988H165.328V21.3155H163.693C163.391 21.3155 163.231 21.151 163.231 20.8402V19.2315C163.231 18.9207 163.391 18.7562 163.693 18.7562H168.26C168.562 18.7562 168.722 18.9207 168.722 19.2315V31.6988ZM165.061 15.9776C164.671 15.5571 164.493 15.027 164.493 14.3872C164.493 13.7474 164.688 13.2172 165.079 12.7785C165.47 12.358 166.003 12.1387 166.643 12.1387C167.3 12.1387 167.815 12.358 168.206 12.7785C168.597 13.1989 168.793 13.7291 168.793 14.3872C168.793 15.027 168.597 15.5571 168.189 15.9776C167.78 16.398 167.265 16.5991 166.607 16.5991C165.968 16.5991 165.452 16.398 165.061 15.9776Z" fill="white"/>
<path d="M177.694 21.2785V31.6984H180.892C181.194 31.6984 181.354 31.8629 181.354 32.1737V33.691C181.354 34.0017 181.194 34.1663 180.892 34.1663H172.435C172.133 34.1663 171.973 34.0017 171.973 33.691V32.1737C171.973 31.8629 172.133 31.6984 172.435 31.6984H174.3V21.2785H172.435C172.133 21.2785 171.973 21.114 171.973 20.8032V19.2128C171.973 18.902 172.133 18.7375 172.435 18.7375H174.3V15.7395C174.3 13.2534 175.064 11.663 176.574 10.9866C177.196 10.6941 178.049 10.5479 179.151 10.5479C180.235 10.5479 181.354 10.8038 182.473 11.3339C182.651 11.4253 182.74 11.5167 182.74 11.6447C182.74 11.7726 182.722 11.864 182.704 11.9189L182.242 13.4727C182.136 13.7287 181.976 13.8018 181.727 13.6921C180.928 13.3265 180.164 13.1254 179.435 13.1254C178.707 13.1254 178.245 13.363 178.014 13.8566C177.8 14.3502 177.676 15.2277 177.676 16.489V18.7558H181.336C181.638 18.7558 181.798 18.9203 181.798 19.2311V20.8215C181.798 21.1323 181.638 21.2968 181.336 21.2968H177.694V21.2785Z" fill="white"/>
<path d="M197.629 31.6982H198.962C199.264 31.6982 199.424 31.8627 199.424 32.1735V33.6907C199.424 34.0015 199.264 34.166 198.962 34.166H195.568C195.319 34.166 195.177 34.0015 195.106 33.6907L194.839 31.9541C193.542 33.6725 191.854 34.5316 189.758 34.5316C186.489 34.5316 184.854 32.7767 184.854 29.2486V21.3149H183.255C182.953 21.3149 182.793 21.1503 182.793 20.8396V19.2309C182.793 18.9201 182.953 18.7556 183.255 18.7556H187.786C188.088 18.7556 188.248 18.9201 188.248 19.2309V28.3163C188.248 29.5594 188.408 30.4551 188.71 30.967C189.029 31.4971 189.687 31.753 190.7 31.753C191.712 31.753 192.565 31.4422 193.223 30.8207C193.88 30.1992 194.218 29.4862 194.218 28.7002V21.2966H192.316C192.014 21.2966 191.854 21.132 191.854 20.8213V19.2126C191.854 18.9018 192.014 18.7373 192.316 18.7373H197.149C197.451 18.7373 197.611 18.9018 197.611 19.2126V31.6982H197.629Z" fill="white"/>
<path d="M206.53 11.4069V31.68H208.431C208.733 31.68 208.893 31.8445 208.893 32.1553V33.6726C208.893 33.9833 208.733 34.1479 208.431 34.1479H201.235C200.933 34.1479 200.773 33.9833 200.773 33.6726V32.1553C200.773 31.8445 200.933 31.68 201.235 31.68H203.137V13.4909H201.502C201.2 13.4909 201.04 13.3447 201.04 13.0156V11.4069C201.04 11.0962 201.2 10.9316 201.502 10.9316H206.068C206.388 10.9499 206.53 11.0962 206.53 11.4069Z" fill="white"/>
<path d="M229.629 34.1479H227.639C227.337 34.1479 227.124 34.0016 226.999 33.7091L221.136 18.3718V31.68H223.037C223.339 31.68 223.499 31.8445 223.499 32.1553V33.6726C223.499 33.9833 223.339 34.1479 223.037 34.1479H216.907C216.605 34.1479 216.445 33.9833 216.445 33.6726V32.1553C216.445 31.8445 216.605 31.68 216.907 31.68H218.506V15.5566H216.907C216.605 15.5566 216.445 15.3921 216.445 15.0813V13.4909C216.445 13.1802 216.605 13.0156 216.907 13.0156H222.202C222.522 13.0156 222.717 13.1619 222.806 13.4544L229.025 30.1627L235.403 13.4544C235.492 13.1619 235.688 13.0156 236.007 13.0156H241.053C241.356 13.0156 241.515 13.1802 241.515 13.4909V15.0813C241.515 15.3921 241.356 15.5566 241.053 15.5566H239.454V31.6983H241.053C241.356 31.6983 241.515 31.8628 241.515 32.1736V33.6909C241.515 34.0016 241.356 34.1662 241.053 34.1662H234.408C234.106 34.1662 233.946 34.0016 233.946 33.6909V32.1736C233.946 31.8628 234.106 31.6983 234.408 31.6983H236.221V18.4267L230.269 33.7274C230.144 34.0016 229.931 34.1479 229.629 34.1479Z" fill="white"/>
<path d="M248.96 31.6988H250.861C251.163 31.6988 251.323 31.8633 251.323 32.1741V33.6914C251.323 34.0021 251.163 34.1667 250.861 34.1667H243.665C243.363 34.1667 243.203 34.0021 243.203 33.6914V32.1741C243.203 31.8633 243.363 31.6988 243.665 31.6988H245.566V21.3155H243.932C243.63 21.3155 243.47 21.151 243.47 20.8402V19.2315C243.47 18.9207 243.63 18.7562 243.932 18.7562H248.498C248.8 18.7562 248.96 18.9207 248.96 19.2315V31.6988ZM245.3 15.9776C244.909 15.5571 244.731 15.027 244.731 14.3872C244.731 13.7474 244.927 13.2172 245.317 12.7785C245.708 12.358 246.241 12.1387 246.881 12.1387C247.538 12.1387 248.054 12.358 248.445 12.7785C248.835 13.1989 249.031 13.7291 249.031 14.3872C249.031 15.027 248.835 15.5571 248.427 15.9776C248.018 16.398 247.503 16.5991 246.845 16.5991C246.188 16.5991 245.673 16.398 245.3 15.9776Z" fill="white"/>
<path d="M252.371 20.8763V19.2311C252.371 18.9203 252.531 18.7558 252.833 18.7558H256.937C257.204 18.7558 257.364 18.9203 257.417 19.2311L257.684 21.0409C258.821 19.3042 260.42 18.4268 262.516 18.4268C265.644 18.4268 267.207 20.1817 267.207 23.7098V31.6984H268.966C269.268 31.6984 269.428 31.8629 269.428 32.1737V33.691C269.428 34.0017 269.268 34.1663 268.966 34.1663H262.374C262.072 34.1663 261.912 34.0017 261.912 33.691V32.1737C261.912 31.8629 262.072 31.6984 262.374 31.6984H263.831V25.2637C263.831 23.9657 263.671 22.9969 263.351 22.3936C263.032 21.7904 262.357 21.4979 261.362 21.4979C260.349 21.4979 259.514 21.8086 258.856 22.4302C258.199 23.0517 257.861 23.7647 257.861 24.5507V31.6984H259.727C260.029 31.6984 260.189 31.8629 260.189 32.1737V33.691C260.189 34.0017 260.029 34.1663 259.727 34.1663H252.869C252.567 34.1663 252.407 34.0017 252.407 33.691V32.1737C252.407 31.8629 252.567 31.6984 252.869 31.6984H254.468V21.3151H252.833C252.513 21.2968 252.371 21.1505 252.371 20.8763Z" fill="white"/>
<path d="M284.834 31.6983H286.131C286.433 31.6983 286.593 31.8628 286.593 32.1736V33.6909C286.593 34.0016 286.433 34.1661 286.131 34.1661H282.72C282.453 34.1661 282.311 34.0016 282.258 33.6909L282.009 31.8628C280.978 33.6543 279.344 34.5318 277.087 34.5318C275.115 34.5318 273.587 33.8919 272.521 32.6123C271.455 31.3327 270.922 29.3584 270.922 26.6711C270.922 23.9839 271.544 21.9365 272.787 20.5289C274.031 19.1213 275.63 18.4084 277.585 18.4084C278.473 18.4084 279.255 18.5729 279.948 18.9202C280.641 19.2675 281.138 19.6697 281.458 20.145V13.5275H279.859C279.557 13.5275 279.397 13.3629 279.397 13.0522V11.4069C279.397 11.0962 279.557 10.9316 279.859 10.9316H284.39C284.692 10.9316 284.852 11.0962 284.852 11.4069V31.6983H284.834ZM281.458 28.2981V22.8322C281.192 22.4118 280.73 22.0279 280.09 21.6806C279.433 21.3332 278.775 21.1504 278.118 21.1504C275.613 21.1504 274.369 22.8871 274.369 26.3787C274.369 29.0476 274.937 30.7294 276.057 31.3875C276.536 31.68 277.212 31.8262 278.047 31.8262C278.882 31.8262 279.681 31.4972 280.392 30.8574C281.085 30.2176 281.458 29.3584 281.458 28.2981Z" fill="white"/>
<path d="M290.732 19.7792C291.762 18.8652 293.059 18.4082 294.623 18.4082C296.186 18.4082 297.554 18.591 298.709 18.9749C298.994 19.0663 299.136 19.2491 299.136 19.5416V22.8321C299.136 23.1429 298.976 23.3074 298.674 23.3074H296.915C296.595 23.3074 296.453 23.1429 296.524 22.8321L296.684 21.2417C296.08 20.9126 295.422 20.7481 294.694 20.7481C293.077 20.7481 292.277 21.3331 292.277 22.4848C292.277 23.088 292.544 23.5633 293.059 23.9106C293.575 24.258 294.214 24.5505 294.96 24.7698C295.707 24.9892 296.453 25.2451 297.217 25.5193C297.981 25.7935 298.621 26.2688 299.136 26.9452C299.651 27.6216 299.918 28.4808 299.918 29.5045C299.918 31.0766 299.385 32.3014 298.318 33.1971C297.252 34.0746 295.742 34.5133 293.806 34.5133C292.455 34.5133 291.034 34.3122 289.541 33.8918C289.275 33.8004 289.15 33.6176 289.15 33.3068V30.0163C289.15 29.7056 289.31 29.541 289.612 29.541H291.371C291.673 29.541 291.816 29.7056 291.798 30.0163L291.709 31.625C292.26 32.0455 293.024 32.2465 294.036 32.2465C295.831 32.2465 296.719 31.5884 296.719 30.2905C296.719 29.6324 296.471 29.1023 295.955 28.7184C295.44 28.3345 294.818 28.042 294.09 27.8409C293.361 27.6399 292.615 27.4022 291.869 27.1463C291.123 26.8904 290.501 26.4333 289.985 25.7752C289.47 25.1171 289.221 24.258 289.221 23.216C289.186 21.8267 289.701 20.6933 290.732 19.7792Z" fill="white"/>
<path d="M96.1223 42.5029H97.6326V53.325H95.9447V46.5978L93.1551 53.325H91.8937L89.0864 46.6892V53.325H87.3984V42.5029H88.9087L92.5333 50.9668L96.1223 42.5029Z" fill="#6CA448"/>
<path d="M101.4 53.325V42.5029H108.436V44.0568H103.266V47.0548H108.134V48.6086H103.266V51.7894H108.436V53.3433H101.4V53.325Z" fill="#6CA448"/>
<path d="M111.67 42.5029H115.543C117.267 42.5029 118.599 42.9782 119.559 43.9105C120.5 44.8611 120.98 46.1773 120.98 47.8957C120.98 49.614 120.5 50.9485 119.559 51.8991C118.617 52.8497 117.267 53.325 115.543 53.325H111.67V42.5029ZM115.419 51.7163C117.835 51.7163 119.061 50.4367 119.061 47.8774C119.061 45.3364 117.853 44.0751 115.419 44.0751H113.571V51.698H115.419V51.7163Z" fill="#6CA448"/>
<path d="M124.408 53.325V42.5029H126.309V53.325H124.408Z" fill="#6CA448"/>
<path d="M132.119 52.7763C131.338 52.3193 130.751 51.6795 130.343 50.8386C129.934 49.9977 129.721 49.0288 129.721 47.8954C129.721 46.7803 129.934 45.8115 130.343 44.9706C130.751 44.1297 131.355 43.4898 132.119 43.0328C132.901 42.5758 133.789 42.3564 134.838 42.3564C135.548 42.3564 136.206 42.4661 136.846 42.7038C137.467 42.9231 137.983 43.2522 138.409 43.6544L137.787 45.0802C137.307 44.6781 136.846 44.4039 136.384 44.2211C135.922 44.0383 135.424 43.9468 134.891 43.9468C133.878 43.9468 133.097 44.2942 132.528 44.9706C131.977 45.6469 131.693 46.6158 131.693 47.8954C131.693 49.1751 131.977 50.1439 132.528 50.8386C133.079 51.515 133.861 51.8623 134.891 51.8623C135.424 51.8623 135.922 51.7709 136.384 51.5881C136.846 51.4053 137.325 51.1311 137.787 50.7289L138.409 52.1548C138 52.557 137.467 52.8677 136.846 53.1054C136.224 53.3248 135.548 53.4527 134.838 53.4527C133.807 53.4527 132.901 53.2334 132.119 52.7763Z" fill="#6CA448"/>
<path d="M149.496 53.325L148.448 50.784H143.313L142.247 53.325H140.328L145.09 42.5029H146.636L151.415 53.325H149.496ZM143.953 49.2667H147.826L145.889 44.6235L143.953 49.2667Z" fill="#6CA448"/>
<path d="M154.027 53.325V42.5029H155.928V51.7163H160.85V53.325H154.027Z" fill="#6CA448"/>
<path d="M303.116 16.1048V11.6078H301.428V11.1143H305.372V11.6078H303.684V16.1048H303.116Z" fill="white"/>
<path d="M311.538 11.1143H312V16.1048H311.485V12.3939L309.921 16.1048H309.53L307.949 12.4305V16.1048H307.434V11.1143H307.896L309.726 15.4102L311.538 11.1143Z" fill="white"/>
</g>
<defs>
<clipPath id="clip0">
<rect width="312" height="64" fill="white"/>
</clipPath>
</defs>
</svg>
