<svg width="477" height="96" viewBox="0 0 477 96" fill="none" xmlns="http://www.w3.org/2000/svg">
<g clip-path="url(#clip0)">
<path d="M50.1177 46.8621C51.0956 48.809 51.6932 51.4139 51.8833 54.2109C54.5182 51.9624 60.8746 50.7558 65.9271 52.785C60.6301 52.785 54.0293 55.6642 51.8833 58.7079C51.4759 64.6307 49.5472 70.4988 46.2061 72.6924C60.603 74.9958 66.4432 55.5819 78.5584 57.1175C73.7775 45.1346 56.3382 42.5845 50.1177 46.8621Z" fill="#6CA448"/>
<path d="M38.79 17.2476C21.7582 19.3864 7.68724 50.9477 20.2642 92.9563C21.2149 96.1645 23.6054 95.808 27.9244 95.3419C51.9374 92.7917 97.9261 87.8012 100.724 56.1302C102.49 36.1405 86.816 21.8543 67.5839 20.5655C67.1493 20.5381 66.769 20.2091 66.5517 19.8252C63.6179 14.1217 53.024 0.356445 38.4369 0.356445C-4.21059 0.356445 -5.43297 72.1165 6.41054 91.3933C9.1541 95.8629 13.2015 95.3693 12.1693 92.4079C1.49385 61.8063 10.7839 9.84402 39.5506 9.84402C48.7592 9.84402 55.1428 15.6298 61.3633 27.5852C61.6078 28.0788 62.1511 28.2708 62.6944 28.353C83.5563 31.1225 91.8413 44.8603 90.5646 56.2673C89.0978 69.0728 79.6447 82.8106 27.1638 88.7061C24.6376 83.6058 18.8245 51.4413 28.1689 36.2228C23.877 54.7592 28.1689 71.3487 31.7002 77.2168C42.5658 72.802 46.6133 67.784 46.6133 56.6238C46.6404 40.2262 31.6731 30.8209 38.79 17.2476Z" fill="#6CA448"/>
<path d="M116.288 96C115.745 96 115.311 95.5613 115.311 95.0128V0.987146C115.311 0.438732 115.745 0 116.288 0C116.832 0 117.266 0.438732 117.266 0.987146V95.0128C117.266 95.5613 116.832 96 116.288 96Z" fill="#6CA448"/>
<path d="M131.555 50.5363V48.2604C131.555 47.7943 131.799 47.5475 132.261 47.5475H134.706V23.335H132.288C131.826 23.335 131.582 23.0882 131.582 22.622V20.2364C131.582 19.7428 131.826 19.4961 132.288 19.4961C135.982 19.3315 139.487 19.2493 142.828 19.2493C146.169 19.2493 148.804 19.9074 150.787 21.1961C152.77 22.4849 153.775 24.3221 153.775 26.7351C153.775 28.4901 153.232 29.9982 152.172 31.287C151.113 32.5757 149.863 33.5081 148.396 34.1113C150.76 34.4952 152.58 35.3727 153.829 36.7711C155.079 38.1696 155.703 39.8697 155.703 41.8988C155.703 44.5312 154.726 46.67 152.797 48.3153C150.868 49.9605 148.288 50.8654 145.082 51.0847C143.751 51.167 141.633 51.2218 138.699 51.2218H132.234C131.772 51.2218 131.555 51.0025 131.555 50.5363ZM139.867 23.0333V32.6306H141.633C146.196 32.6306 148.478 31.0402 148.478 27.832C148.478 26.0222 147.935 24.7883 146.821 24.0753C145.707 23.3624 144.132 23.0333 142.067 23.0333H139.867ZM139.867 36.5243V47.6297H141.958C144.675 47.6297 146.767 47.191 148.261 46.3135C149.755 45.4361 150.515 43.9279 150.515 41.7891C150.515 38.2793 148.07 36.5243 143.208 36.5243H139.867Z" fill="#2C3336"/>
<path d="M169.122 51.7705C165.455 51.7705 162.766 50.7011 161.054 48.5348C159.343 46.3686 158.501 43.5168 158.501 39.9521C158.501 36.3874 159.397 33.4534 161.217 31.1227C163.037 28.7919 165.645 27.6128 169.068 27.6128C170.752 27.6128 172.219 27.9418 173.441 28.5725C174.664 29.2032 175.587 30.0807 176.239 31.1501C177.461 33.2615 178.086 35.7019 178.086 38.4714C178.086 39.7876 178.032 40.5005 177.896 40.6102C177.76 40.7473 177.543 40.8022 177.19 40.8022H163.608C163.771 43.0507 164.314 44.7782 165.238 46.0121C166.188 47.2461 167.791 47.8493 170.1 47.8493C171.784 47.8493 173.523 47.438 175.315 46.6428C175.75 46.4234 176.049 46.5605 176.239 47.0267L177.108 49.1655C177.271 49.5494 177.135 49.851 176.701 50.0978C174.718 51.2221 172.164 51.7705 169.122 51.7705ZM163.635 37.3746H173.251C173.305 33.4808 171.811 31.534 168.715 31.534C166.895 31.534 165.618 32.1098 164.857 33.2889C164.097 34.4406 163.689 35.8116 163.635 37.3746Z" fill="#2C3336"/>
<path d="M194.629 37.3746V35.7293C194.629 33.5083 194.004 32.1372 192.782 31.5888C192.184 31.342 191.342 31.2049 190.229 31.2049C188.137 31.2049 186.86 32.1921 186.426 34.1938C186.344 34.6599 186.1 34.9067 185.719 34.9067H182.813C182.324 34.9067 182.107 34.6599 182.161 34.1938C182.297 31.9179 183.193 30.2726 184.877 29.2032C186.562 28.1338 188.735 27.6128 191.342 27.6128C196.857 27.6128 199.627 30.1629 199.627 35.2632V47.5203H201.61C202.072 47.5203 202.317 47.767 202.317 48.2332V50.5091C202.317 50.9753 202.072 51.2221 201.61 51.2221H196.15C195.743 51.2221 195.526 50.9753 195.444 50.5091L195.118 48.3703C193.461 50.6462 191.044 51.7705 187.92 51.7705C185.937 51.7705 184.307 51.2495 183.03 50.2075C181.726 49.1655 181.102 47.4928 181.102 45.1895C181.102 42.1732 182.351 40.1167 184.85 38.9924C186.915 38.0327 189.387 37.5117 192.239 37.402C192.809 37.402 193.624 37.402 194.629 37.3746ZM194.738 44.1749V40.5828C191.777 40.5828 189.957 40.7199 189.278 40.9941C188.599 41.2683 188.001 41.5425 187.485 41.8442C186.507 42.3652 186.018 43.3249 186.018 44.7233C186.018 46.8622 187.241 47.9316 189.658 47.9316C191.261 47.9316 192.51 47.5477 193.407 46.7799C194.276 46.067 194.738 45.1621 194.738 44.1749Z" fill="#2C3336"/>
<path d="M227.253 47.5475H229.291C229.752 47.5475 229.997 47.7943 229.997 48.2604V50.5364C229.997 51.0025 229.752 51.2493 229.291 51.2493H224.102C223.722 51.2493 223.505 51.0025 223.396 50.5364L222.988 47.9314C221.006 50.5089 218.425 51.7977 215.22 51.7977C210.221 51.7977 207.722 49.1653 207.722 43.8731V31.9725H205.278C204.816 31.9725 204.571 31.7257 204.571 31.2596V28.8466C204.571 28.3804 204.816 28.1336 205.278 28.1336H212.204C212.666 28.1336 212.911 28.3804 212.911 28.8466V42.4747C212.911 44.3393 213.155 45.6829 213.617 46.4507C214.106 47.2459 215.111 47.6298 216.659 47.6298C218.208 47.6298 219.511 47.1636 220.517 46.2313C221.522 45.299 222.038 44.2296 222.038 43.0505V31.9451H219.131C218.669 31.9451 218.425 31.6983 218.425 31.2322V28.8191C218.425 28.353 218.669 28.1062 219.131 28.1062H226.52C226.982 28.1062 227.226 28.353 227.226 28.8191V47.5475H227.253Z" fill="#2C3336"/>
<path d="M240.564 31.9452V43.7087C240.564 45.162 240.754 46.2314 241.107 46.8895C241.487 47.5476 242.167 47.8767 243.199 47.8767C244.204 47.8767 245.209 47.6573 246.16 47.2186C246.486 47.0815 246.757 47.2186 246.893 47.6024L247.735 49.7413C247.762 49.8235 247.79 49.9606 247.79 50.1252C247.79 50.2897 247.627 50.4816 247.328 50.6736C245.861 51.4139 244.095 51.7978 242.058 51.7978C239.314 51.7978 237.522 51.0849 236.652 49.659C236.027 48.7267 235.674 47.8218 235.593 46.9443C235.457 45.7653 235.403 44.5313 235.403 43.2151V31.9726H232.768C232.306 31.9726 232.062 31.7258 232.062 31.2597V28.8467C232.062 28.3805 232.306 28.1337 232.768 28.1337H235.403V21.827C235.403 21.3608 235.647 21.114 236.109 21.114H239.912C240.374 21.114 240.618 21.3608 240.618 21.827V28.1337H245.29C245.752 28.1337 245.997 28.3805 245.997 28.8467V31.2597C245.997 31.7258 245.752 31.9726 245.29 31.9726H240.564V31.9452Z" fill="#2C3336"/>
<path d="M257.949 47.5477H260.855C261.317 47.5477 261.561 47.7945 261.561 48.2606V50.5366C261.561 51.0027 261.317 51.2495 260.855 51.2495H249.854C249.392 51.2495 249.147 51.0027 249.147 50.5366V48.2606C249.147 47.7945 249.392 47.5477 249.854 47.5477H252.76V31.9727H250.261C249.799 31.9727 249.555 31.7259 249.555 31.2598V28.8468C249.555 28.3806 249.799 28.1338 250.261 28.1338H257.242C257.704 28.1338 257.949 28.3806 257.949 28.8468V47.5477ZM252.353 23.9659C251.755 23.3352 251.484 22.54 251.484 21.5803C251.484 20.6205 251.782 19.8253 252.38 19.1672C252.978 18.5366 253.793 18.2075 254.77 18.2075C255.775 18.2075 256.563 18.5366 257.161 19.1672C257.758 19.7979 258.057 20.5931 258.057 21.5803C258.057 22.54 257.758 23.3352 257.134 23.9659C256.509 24.5966 255.721 24.8982 254.716 24.8982C253.738 24.8982 252.95 24.5966 252.353 23.9659Z" fill="#2C3336"/>
<path d="M271.667 31.9178V47.5476H276.556C277.018 47.5476 277.262 47.7944 277.262 48.2605V50.5364C277.262 51.0026 277.018 51.2494 276.556 51.2494H263.626C263.164 51.2494 262.92 51.0026 262.92 50.5364V48.2605C262.92 47.7944 263.164 47.5476 263.626 47.5476H266.478V31.9178H263.626C263.164 31.9178 262.92 31.671 262.92 31.2048V28.8192C262.92 28.3531 263.164 28.1063 263.626 28.1063H266.478V23.6093C266.478 19.88 267.646 17.4944 269.955 16.4799C270.906 16.0411 272.21 15.8218 273.894 15.8218C275.551 15.8218 277.262 16.2057 278.974 17.0009C279.245 17.138 279.381 17.2751 279.381 17.467C279.381 17.659 279.354 17.7961 279.327 17.8783L278.621 20.2091C278.458 20.593 278.213 20.7027 277.833 20.5381C276.611 19.9897 275.443 19.6881 274.329 19.6881C273.215 19.6881 272.509 20.0446 272.156 20.7849C271.83 21.5253 271.64 22.8415 271.64 24.7335V28.1337H277.235C277.697 28.1337 277.942 28.3805 277.942 28.8466V31.2322C277.942 31.6984 277.697 31.9452 277.235 31.9452H271.667V31.9178Z" fill="#2C3336"/>
<path d="M302.145 47.5475H304.182C304.644 47.5475 304.888 47.7943 304.888 48.2604V50.5364C304.888 51.0025 304.644 51.2493 304.182 51.2493H298.994C298.613 51.2493 298.396 51.0025 298.288 50.5364L297.88 47.9314C295.897 50.5089 293.317 51.7977 290.111 51.7977C285.113 51.7977 282.614 49.1653 282.614 43.8731V31.9725H280.169C279.707 31.9725 279.463 31.7257 279.463 31.2596V28.8466C279.463 28.3804 279.707 28.1336 280.169 28.1336H287.096C287.558 28.1336 287.802 28.3804 287.802 28.8466V42.4747C287.802 44.3393 288.047 45.6829 288.508 46.4507C288.997 47.2459 290.003 47.6298 291.551 47.6298C293.099 47.6298 294.403 47.1636 295.408 46.2313C296.413 45.299 296.929 44.2296 296.929 43.0505V31.9451H294.023C293.561 31.9451 293.317 31.6983 293.317 31.2322V28.8191C293.317 28.353 293.561 28.1062 294.023 28.1062H301.411C301.873 28.1062 302.118 28.353 302.118 28.8191V47.5475H302.145Z" fill="#2C3336"/>
<path d="M315.753 17.1106V47.5202H318.66C319.122 47.5202 319.366 47.767 319.366 48.2332V50.5091C319.366 50.9752 319.122 51.222 318.66 51.222H307.658C307.197 51.222 306.952 50.9752 306.952 50.5091V48.2332C306.952 47.767 307.197 47.5202 307.658 47.5202H310.565V20.2366H308.066C307.604 20.2366 307.36 20.0172 307.36 19.5237V17.1106C307.36 16.6445 307.604 16.3977 308.066 16.3977H315.047C315.536 16.4251 315.753 16.6445 315.753 17.1106Z" fill="#2C3336"/>
<path d="M351.067 51.2221H348.024C347.563 51.2221 347.237 51.0027 347.047 50.564L338.082 27.558V47.5203H340.989C341.451 47.5203 341.695 47.767 341.695 48.2332V50.5091C341.695 50.9753 341.451 51.2221 340.989 51.2221H331.617C331.156 51.2221 330.911 50.9753 330.911 50.5091V48.2332C330.911 47.767 331.156 47.5203 331.617 47.5203H334.062V23.3352H331.617C331.156 23.3352 330.911 23.0884 330.911 22.6222V20.2366C330.911 19.7705 331.156 19.5237 331.617 19.5237H339.712C340.201 19.5237 340.5 19.743 340.636 20.1818L350.143 45.2443L359.895 20.1818C360.031 19.743 360.33 19.5237 360.819 19.5237H368.533C368.995 19.5237 369.24 19.7705 369.24 20.2366V22.6222C369.24 23.0884 368.995 23.3352 368.533 23.3352H366.088V47.5477H368.533C368.995 47.5477 369.24 47.7945 369.24 48.2606V50.5365C369.24 51.0027 368.995 51.2495 368.533 51.2495H358.374C357.912 51.2495 357.668 51.0027 357.668 50.5365V48.2606C357.668 47.7945 357.912 47.5477 358.374 47.5477H361.145V27.6402L352.045 50.5914C351.855 51.0027 351.529 51.2221 351.067 51.2221Z" fill="#2C3336"/>
<path d="M380.621 47.5477H383.528C383.99 47.5477 384.234 47.7945 384.234 48.2606V50.5366C384.234 51.0027 383.99 51.2495 383.528 51.2495H372.527C372.065 51.2495 371.82 51.0027 371.82 50.5366V48.2606C371.82 47.7945 372.065 47.5477 372.527 47.5477H375.433V31.9727H372.934C372.472 31.9727 372.228 31.7259 372.228 31.2598V28.8468C372.228 28.3806 372.472 28.1338 372.934 28.1338H379.915C380.377 28.1338 380.621 28.3806 380.621 28.8468V47.5477ZM375.026 23.9659C374.428 23.3352 374.156 22.54 374.156 21.5803C374.156 20.6205 374.455 19.8253 375.053 19.1672C375.65 18.5366 376.465 18.2075 377.443 18.2075C378.448 18.2075 379.236 18.5366 379.834 19.1672C380.431 19.7979 380.73 20.5931 380.73 21.5803C380.73 22.54 380.431 23.3352 379.806 23.9659C379.182 24.5966 378.394 24.8982 377.389 24.8982C376.384 24.8982 375.596 24.5966 375.026 23.9659Z" fill="#2C3336"/>
<path d="M385.837 31.3145V28.8466C385.837 28.3805 386.081 28.1337 386.543 28.1337H392.818C393.226 28.1337 393.47 28.3805 393.551 28.8466L393.959 31.5613C395.697 28.9563 398.142 27.6401 401.348 27.6401C406.128 27.6401 408.519 30.2725 408.519 35.5647V47.5476H411.208C411.67 47.5476 411.914 47.7944 411.914 48.2605V50.5364C411.914 51.0026 411.67 51.2494 411.208 51.2494H401.13C400.668 51.2494 400.424 51.0026 400.424 50.5364V48.2605C400.424 47.7944 400.668 47.5476 401.13 47.5476H403.358V37.8955C403.358 35.9486 403.113 34.4953 402.624 33.5904C402.135 32.6855 401.103 32.2468 399.582 32.2468C398.034 32.2468 396.757 32.713 395.752 33.6453C394.747 34.5776 394.231 35.647 394.231 36.8261V47.5476H397.083C397.545 47.5476 397.789 47.7944 397.789 48.2605V50.5364C397.789 51.0026 397.545 51.2494 397.083 51.2494H386.597C386.136 51.2494 385.891 51.0026 385.891 50.5364V48.2605C385.891 47.7944 386.136 47.5476 386.597 47.5476H389.042V31.9726H386.543C386.054 31.9452 385.837 31.7258 385.837 31.3145Z" fill="#2C3336"/>
<path d="M435.466 47.5477H437.449C437.91 47.5477 438.155 47.7944 438.155 48.2606V50.5365C438.155 51.0027 437.91 51.2495 437.449 51.2495H432.233C431.826 51.2495 431.608 51.0027 431.527 50.5365L431.147 47.7944C429.571 50.4817 427.072 51.7979 423.622 51.7979C420.607 51.7979 418.271 50.8381 416.641 48.9187C415.011 46.9992 414.196 44.0378 414.196 40.007C414.196 35.9761 415.147 32.905 417.049 30.7936C418.95 28.6822 421.395 27.6128 424.383 27.6128C425.741 27.6128 426.936 27.8596 427.996 28.3806C429.055 28.9016 429.816 29.5048 430.305 30.2178V20.2914H427.86C427.398 20.2914 427.153 20.0447 427.153 19.5785V17.1106C427.153 16.6445 427.398 16.3977 427.86 16.3977H434.787C435.248 16.3977 435.493 16.6445 435.493 17.1106V47.5477H435.466ZM430.305 42.4474V34.2486C429.897 33.6179 429.191 33.0421 428.213 32.5211C427.208 32.0001 426.203 31.7259 425.198 31.7259C421.368 31.7259 419.466 34.3309 419.466 39.5682C419.466 43.5717 420.335 46.0944 422.047 47.0815C422.78 47.5202 423.812 47.7396 425.089 47.7396C426.366 47.7396 427.588 47.246 428.675 46.2863C429.734 45.3266 430.305 44.0378 430.305 42.4474Z" fill="#2C3336"/>
<path d="M444.484 29.6693C446.06 28.2983 448.042 27.6128 450.433 27.6128C452.823 27.6128 454.915 27.887 456.681 28.4628C457.115 28.5999 457.333 28.8741 457.333 29.3129V34.2486C457.333 34.7148 457.088 34.9616 456.626 34.9616H453.937C453.448 34.9616 453.231 34.7148 453.339 34.2486L453.584 31.863C452.66 31.3694 451.655 31.1227 450.542 31.1227C448.07 31.1227 446.847 32.0001 446.847 33.7276C446.847 34.6325 447.255 35.3454 448.042 35.8664C448.83 36.3874 449.808 36.8262 450.949 37.1552C452.09 37.4843 453.231 37.8682 454.399 38.2795C455.567 38.6908 456.545 39.4037 457.333 40.4183C458.12 41.4329 458.528 42.7216 458.528 44.2572C458.528 46.6154 457.713 48.4526 456.083 49.7962C454.453 51.1124 452.144 51.7705 449.183 51.7705C447.119 51.7705 444.946 51.4688 442.664 50.8382C442.257 50.7011 442.066 50.4269 442.066 49.9607V45.025C442.066 44.5588 442.311 44.312 442.773 44.312H445.462C445.924 44.312 446.141 44.5588 446.114 45.025L445.978 47.438C446.82 48.0687 447.988 48.3703 449.536 48.3703C452.28 48.3703 453.638 47.3832 453.638 45.4363C453.638 44.4491 453.258 43.6539 452.47 43.0781C451.682 42.5023 450.732 42.0635 449.618 41.7619C448.504 41.4603 447.363 41.1038 446.222 40.7199C445.082 40.336 444.131 39.6505 443.343 38.6634C442.555 37.6762 442.175 36.3874 442.175 34.8245C442.121 32.7405 442.908 31.0404 444.484 29.6693Z" fill="#2C3336"/>
<path d="M146.957 63.7532H149.266V79.9862H146.685V69.8954L142.42 79.9862H140.492L136.2 70.0325V79.9862H133.619V63.7532H135.928L141.47 76.449L146.957 63.7532Z" fill="#6CA448"/>
<path d="M155.024 79.9862V63.7532H165.781V66.0839H157.877V70.5809H165.32V72.9117H157.877V77.6829H165.781V80.0137H155.024V79.9862Z" fill="#6CA448"/>
<path d="M170.726 63.7532H176.647C179.282 63.7532 181.32 64.4661 182.786 65.8646C184.226 67.2904 184.96 69.2647 184.96 71.8423C184.96 74.4198 184.226 76.4215 182.786 77.8474C181.347 79.2733 179.282 79.9862 176.647 79.9862H170.726V63.7532ZM176.457 77.5732C180.152 77.5732 182.026 75.6538 182.026 71.8149C182.026 68.0034 180.179 66.1114 176.457 66.1114H173.632V77.5458H176.457V77.5732Z" fill="#6CA448"/>
<path d="M190.202 79.9862V63.7532H193.109V79.9862H190.202Z" fill="#6CA448"/>
<path d="M201.991 79.1638C200.796 78.4783 199.9 77.5185 199.275 76.2572C198.65 74.9958 198.324 73.5425 198.324 71.8424C198.324 70.1698 198.65 68.7165 199.275 67.4551C199.9 66.1938 200.823 65.234 201.991 64.5485C203.187 63.863 204.545 63.5339 206.147 63.5339C207.234 63.5339 208.239 63.6985 209.217 64.0549C210.168 64.384 210.955 64.8776 211.607 65.4808L210.657 67.6196C209.923 67.0164 209.217 66.6051 208.511 66.3309C207.804 66.0566 207.044 65.9195 206.229 65.9195C204.681 65.9195 203.485 66.4405 202.616 67.4551C201.774 68.4697 201.339 69.923 201.339 71.8424C201.339 73.7619 201.774 75.2152 202.616 76.2572C203.458 77.2717 204.653 77.7927 206.229 77.7927C207.044 77.7927 207.804 77.6556 208.511 77.3814C209.217 77.1072 209.95 76.6959 210.657 76.0926L211.607 78.2315C210.983 78.8347 210.168 79.3009 209.217 79.6573C208.266 79.9864 207.234 80.1783 206.147 80.1783C204.572 80.1783 203.187 79.8493 201.991 79.1638Z" fill="#6CA448"/>
<path d="M228.558 79.9862L226.955 76.1748H219.105L217.475 79.9862H214.541L221.821 63.7532H224.184L231.491 79.9862H228.558ZM220.082 73.8988H226.004L223.043 66.934L220.082 73.8988Z" fill="#6CA448"/>
<path d="M235.484 79.9862V63.7532H238.391V77.5732H245.915V79.9862H235.484Z" fill="#6CA448"/>
<path d="M463.417 24.1577V17.4122H460.837V16.6719H466.867V17.4122H464.287V24.1577H463.417Z" fill="#2C3336"/>
<path d="M476.293 16.6719H477V24.1577H476.212V18.5913L473.822 24.1577H473.224L470.806 18.6462V24.1577H470.019V16.6719H470.725L473.523 23.1157L476.293 16.6719Z" fill="#2C3336"/>
</g>
<defs>
<clipPath id="clip0">
<rect width="477" height="96" fill="white"/>
</clipPath>
</defs>
</svg>
