<svg width="370" height="68" viewBox="0 0 370 68" fill="none" xmlns="http://www.w3.org/2000/svg">
<path d="M34.7795 33.3587C35.4704 34.7184 35.859 36.5387 36.0101 38.4906C37.8238 36.9115 42.2499 36.0782 45.7692 37.5037C42.0772 37.5037 37.4999 39.5214 36.0101 41.6267C35.7295 45.7717 34.3908 49.8729 32.0806 51.4081C42.0772 53.009 46.1147 39.4556 54.5351 40.5302C51.2101 32.1525 39.0976 30.376 34.7795 33.3587Z" fill="#66A250"/>
<path d="M26.9206 12.6769C15.1104 14.1682 5.32975 36.2091 14.0741 65.553C14.7434 67.79 16.4059 67.5487 19.3854 67.2198C36.0536 65.4433 67.9865 61.9563 69.9297 39.8277C71.1604 25.8575 60.2786 15.8789 46.9354 15.0016C46.6331 14.9797 46.374 14.7604 46.2229 14.4753C44.1934 10.4838 36.8309 0.87793 26.7263 0.87793C-2.91797 0.87793 -3.76001 50.9907 4.48771 64.4564C6.4093 67.5926 9.21611 67.2198 8.50362 65.1802C1.03317 43.7973 7.48884 7.52308 27.4388 7.52308C33.8297 7.52308 38.2559 11.5584 42.574 19.9142C42.7468 20.2651 43.1138 20.3967 43.4809 20.4405C57.9468 22.3705 63.7115 31.9544 62.8263 39.9374C61.8331 48.8853 55.2695 58.4911 18.8241 62.5923C17.0752 59.0175 13.0377 36.56 19.5366 25.9233C16.557 38.8847 19.5366 50.4643 21.9979 54.5655C29.5331 51.4732 32.3616 47.9642 32.3616 40.1786C32.3616 28.7305 21.9763 22.1731 26.9206 12.6769Z" fill="#66A250"/>
<path d="M86.3604 48.7098V46.714C86.3604 46.2973 86.5547 46.0999 86.9649 46.0999H89.0808V25.0241H87.0081C86.5979 25.0241 86.4035 24.8267 86.4035 24.41V22.3485C86.4035 21.9099 86.5979 21.6905 87.0081 21.6905C90.2035 21.559 93.2478 21.4932 96.1194 21.4932C98.991 21.4932 101.301 22.0634 103.007 23.1819C104.734 24.3004 105.576 25.9013 105.576 27.9848C105.576 29.498 105.123 30.8139 104.194 31.9543C103.266 33.0728 102.186 33.9062 100.934 34.4106C102.985 34.7396 104.561 35.5072 105.641 36.7353C106.721 37.9635 107.26 39.4329 107.26 41.2093C107.26 43.5121 106.418 45.3762 104.734 46.8017C103.05 48.2273 100.826 49.0387 98.0626 49.2142C96.9183 49.3019 95.0831 49.3458 92.5353 49.3458H86.9433C86.5763 49.3238 86.3604 49.1264 86.3604 48.7098ZM93.5717 24.8048V33.1606H95.0831C99.0342 33.1606 100.999 31.757 100.999 28.9717C100.999 27.3927 100.524 26.318 99.5524 25.7039C98.6024 25.0899 97.2206 24.7828 95.4285 24.7828H93.5717V24.8048ZM93.5717 36.538V46.2096H95.3638C97.7172 46.2096 99.5308 45.8368 100.826 45.0692C102.122 44.3016 102.769 43.0076 102.769 41.1216C102.769 38.0731 100.654 36.538 96.4433 36.538H93.5717Z" fill="white"/>
<path d="M118.876 49.8078C115.702 49.8078 113.371 48.8648 111.902 46.9787C110.413 45.0926 109.678 42.6144 109.678 39.5002C109.678 36.4079 110.456 33.8419 112.032 31.8023C113.608 29.7627 115.875 28.7539 118.833 28.7539C120.301 28.7539 121.553 29.039 122.611 29.5873C123.669 30.1356 124.468 30.9032 125.03 31.8462C126.088 33.6884 126.627 35.8157 126.627 38.2282C126.627 39.3686 126.584 39.9827 126.476 40.0923C126.368 40.202 126.174 40.2458 125.872 40.2458H114.126C114.256 42.1977 114.731 43.711 115.551 44.7637C116.372 45.8383 117.775 46.3646 119.761 46.3646C121.23 46.3646 122.741 46.0137 124.274 45.3119C124.641 45.1146 124.922 45.2242 125.073 45.6409L125.828 47.5051C125.958 47.834 125.85 48.0972 125.461 48.3165C123.713 49.3253 121.51 49.8078 118.876 49.8078ZM114.105 37.2632H122.417C122.46 33.8858 121.165 32.1971 118.509 32.1971C116.933 32.1971 115.832 32.7015 115.163 33.7103C114.515 34.7192 114.169 35.9035 114.105 37.2632Z" fill="white"/>
<path d="M140.943 37.2628V35.8372C140.943 33.9073 140.404 32.7011 139.346 32.2186C138.849 31.9993 138.115 31.8896 137.143 31.8896C135.33 31.8896 134.229 32.7669 133.862 34.4994C133.775 34.9161 133.581 35.1135 133.257 35.1135H130.688C130.256 35.1135 130.083 34.9161 130.126 34.4994C130.234 32.5256 131.012 31.0782 132.48 30.1571C133.948 29.2359 135.805 28.7754 138.072 28.7754C142.843 28.7754 145.218 30.9904 145.218 35.4425V46.123H146.946C147.356 46.123 147.55 46.3203 147.55 46.737V48.7328C147.55 49.1495 147.356 49.3468 146.946 49.3468H142.239C141.893 49.3468 141.699 49.1495 141.634 48.7328L141.354 46.8686C139.907 48.8424 137.834 49.8293 135.114 49.8293C133.408 49.8293 132.005 49.3688 130.882 48.4696C129.759 47.5704 129.198 46.101 129.198 44.1053C129.198 41.4736 130.277 39.6752 132.437 38.7102C134.229 37.8768 136.345 37.4163 138.827 37.3286C139.367 37.3066 140.058 37.2847 140.943 37.2628ZM141.03 43.1842V40.048C138.46 40.048 136.906 40.1796 136.323 40.4209C135.74 40.6621 135.222 40.9033 134.768 41.1446C133.905 41.6051 133.495 42.4385 133.495 43.6667C133.495 45.5308 134.552 46.4739 136.647 46.4739C138.029 46.4739 139.108 46.1449 139.885 45.487C140.641 44.829 141.03 44.0614 141.03 43.1842Z" fill="white"/>
<path d="M169.161 46.1228H170.909C171.32 46.1228 171.514 46.3202 171.514 46.7369V48.7326C171.514 49.1493 171.32 49.3467 170.909 49.3467H166.44C166.116 49.3467 165.922 49.1493 165.836 48.7326L165.468 46.4518C163.763 48.6888 161.517 49.8292 158.754 49.8292C154.436 49.8292 152.276 47.5264 152.276 42.9209V32.5693H150.161C149.75 32.5693 149.556 32.372 149.556 31.9553V29.8279C149.556 29.4112 149.75 29.2139 150.161 29.2139H156.163C156.573 29.2139 156.767 29.4112 156.767 29.8279V41.6927C156.767 43.3156 156.983 44.478 157.394 45.1578C157.804 45.8377 158.689 46.1886 160.028 46.1886C161.366 46.1886 162.489 45.7719 163.374 44.9605C164.259 44.149 164.691 43.2279 164.691 42.1971V32.5255H162.165C161.755 32.5255 161.561 32.3281 161.561 31.9114V29.8279C161.561 29.4112 161.755 29.2139 162.165 29.2139H168.556C168.966 29.2139 169.161 29.4112 169.161 29.8279V46.1228Z" fill="white"/>
<path d="M180.669 32.5471V42.789C180.669 44.061 180.82 44.9821 181.144 45.5523C181.468 46.1225 182.072 46.4076 182.936 46.4076C183.821 46.4076 184.663 46.2102 185.505 45.8374C185.807 45.7277 186.002 45.8374 186.153 46.1664L186.865 48.0305C186.887 48.1182 186.908 48.2279 186.908 48.3814C186.908 48.5349 186.779 48.6885 186.498 48.842C185.224 49.4999 183.691 49.8069 181.943 49.8069C179.568 49.8069 178.013 49.1929 177.257 47.9428C176.718 47.1313 176.415 46.3418 176.329 45.5962C176.221 44.5654 176.178 43.4908 176.178 42.3503V32.569H173.889C173.479 32.569 173.285 32.3717 173.285 31.955V29.8276C173.285 29.4109 173.479 29.2136 173.889 29.2136H176.178V23.7308C176.178 23.3141 176.372 23.1167 176.782 23.1167H180.064C180.474 23.1167 180.669 23.3141 180.669 23.7308V29.2136H184.706C185.116 29.2136 185.311 29.4109 185.311 29.8276V31.933C185.311 32.3497 185.116 32.5471 184.706 32.5471H180.669Z" fill="white"/>
<path d="M195.718 46.1227H198.244C198.655 46.1227 198.849 46.3201 198.849 46.7368V48.7325C198.849 49.1492 198.655 49.3466 198.244 49.3466H188.723C188.313 49.3466 188.118 49.1492 188.118 48.7325V46.7148C188.118 46.2982 188.313 46.1008 188.723 46.1008H191.249V32.5473H189.09C188.68 32.5473 188.485 32.3499 188.485 31.9332V29.8278C188.485 29.4111 188.68 29.2138 189.09 29.2138H195.135C195.545 29.2138 195.74 29.4111 195.74 29.8278V46.1227H195.718ZM190.882 25.6171C190.385 25.0688 190.126 24.3889 190.126 23.5555C190.126 22.7221 190.385 22.0203 190.903 21.4721C191.422 20.9238 192.113 20.6387 192.976 20.6387C193.84 20.6387 194.531 20.9238 195.049 21.4721C195.567 22.0203 195.826 22.7221 195.826 23.5555C195.826 24.3889 195.567 25.0907 195.027 25.6171C194.488 26.1653 193.797 26.4285 192.933 26.4285C192.069 26.4285 191.378 26.1434 190.882 25.6171Z" fill="white"/>
<path d="M207.572 32.5033V46.1006H211.804C212.214 46.1006 212.408 46.298 212.408 46.7147V48.7104C212.408 49.1271 212.214 49.3245 211.804 49.3245H200.62C200.209 49.3245 200.015 49.1271 200.015 48.7104V46.7147C200.015 46.298 200.209 46.1006 200.62 46.1006H203.103V32.5033H200.62C200.209 32.5033 200.015 32.3059 200.015 31.8892V29.8277C200.015 29.411 200.209 29.2136 200.62 29.2136H203.103V25.266C203.103 22.0202 204.096 19.9367 206.104 19.0595C206.924 18.6866 208.069 18.4893 209.494 18.4893C210.919 18.4893 212.408 18.8182 213.898 19.4981C214.136 19.6077 214.265 19.7393 214.265 19.9148C214.265 20.0683 214.243 20.1999 214.222 20.2876L213.617 22.3272C213.488 22.6562 213.25 22.7439 212.948 22.6123C211.89 22.1298 210.875 21.8886 209.904 21.8886C208.932 21.8886 208.328 22.2176 208.025 22.8536C207.723 23.4896 207.594 24.63 207.594 26.2748V29.2355H212.43C212.84 29.2355 213.034 29.4329 213.034 29.8496V31.9111C213.034 32.3278 212.84 32.5252 212.43 32.5252H207.572V32.5033Z" fill="white"/>
<path d="M233.936 46.1228H235.684C236.095 46.1228 236.289 46.3202 236.289 46.7369V48.7326C236.289 49.1493 236.095 49.3467 235.684 49.3467H231.215C230.891 49.3467 230.697 49.1493 230.611 48.7326L230.244 46.4518C228.538 48.6888 226.292 49.8292 223.529 49.8292C219.211 49.8292 217.051 47.5264 217.051 42.9209V32.5693H214.936C214.525 32.5693 214.331 32.372 214.331 31.9553V29.8279C214.331 29.4112 214.525 29.2139 214.936 29.2139H220.938C221.348 29.2139 221.542 29.4112 221.542 29.8279V41.6927C221.542 43.3156 221.758 44.478 222.169 45.1578C222.579 45.8377 223.464 46.1886 224.803 46.1886C226.141 46.1886 227.264 45.7719 228.149 44.9605C229.034 44.149 229.466 43.2279 229.466 42.1971V32.5255H226.94C226.53 32.5255 226.336 32.3281 226.336 31.9114V29.8279C226.336 29.4112 226.53 29.2139 226.94 29.2139H233.331C233.741 29.2139 233.936 29.4112 233.936 29.8279V46.1228Z" fill="white"/>
<path d="M245.723 19.6302V46.1011H248.249C248.659 46.1011 248.854 46.2985 248.854 46.7152V48.7109C248.854 49.1276 248.659 49.325 248.249 49.325H238.728C238.317 49.325 238.123 49.1276 238.123 48.7109V46.7152C238.123 46.2985 238.317 46.1011 238.728 46.1011H241.254V22.3497H239.095C238.684 22.3497 238.49 22.1523 238.49 21.7356V19.6302C238.49 19.2135 238.684 19.0161 239.095 19.0161H245.14C245.529 19.038 245.723 19.2354 245.723 19.6302Z" fill="white"/>
<path d="M276.274 49.3243H273.64C273.23 49.3243 272.971 49.1269 272.798 48.7541L265.047 28.7309V46.1223H267.573C267.984 46.1223 268.178 46.3197 268.178 46.7364V48.7321C268.178 49.1488 267.984 49.3462 267.573 49.3462H259.455C259.045 49.3462 258.851 49.1488 258.851 48.7321V46.7145C258.851 46.2978 259.045 46.1004 259.455 46.1004H261.571V25.0245H259.455C259.045 25.0245 258.851 24.8272 258.851 24.4105V22.3489C258.851 21.9322 259.045 21.7349 259.455 21.7349H266.451C266.882 21.7349 267.141 21.9322 267.249 22.3051L275.476 44.1047L283.918 22.3051C284.026 21.9322 284.285 21.7349 284.716 21.7349H291.388C291.798 21.7349 291.993 21.9322 291.993 22.3489V24.4105C291.993 24.8272 291.798 25.0245 291.388 25.0245H289.272V46.1004H291.388C291.798 46.1004 291.993 46.2978 291.993 46.7145V48.7102C291.993 49.1269 291.798 49.3243 291.388 49.3243H282.601C282.19 49.3243 281.996 49.1269 281.996 48.7102V46.7145C281.996 46.2978 282.19 46.1004 282.601 46.1004H284.997V28.7528L277.116 48.7321C276.944 49.1269 276.663 49.3243 276.274 49.3243Z" fill="white"/>
<path d="M301.817 46.1227H304.343C304.753 46.1227 304.947 46.3201 304.947 46.7368V48.7325C304.947 49.1492 304.753 49.3466 304.343 49.3466H294.821C294.411 49.3466 294.217 49.1492 294.217 48.7325V46.7148C294.217 46.2982 294.411 46.1008 294.821 46.1008H297.347V32.5473H295.188C294.778 32.5473 294.584 32.3499 294.584 31.9332V29.8278C294.584 29.4111 294.778 29.2138 295.188 29.2138H301.234C301.644 29.2138 301.838 29.4111 301.838 29.8278V46.1227H301.817ZM296.98 25.6171C296.484 25.0688 296.225 24.3889 296.225 23.5555C296.225 22.7221 296.484 22.0203 297.002 21.4721C297.52 20.9238 298.211 20.6387 299.075 20.6387C299.938 20.6387 300.629 20.9238 301.147 21.4721C301.666 22.0203 301.925 22.7221 301.925 23.5555C301.925 24.3889 301.666 25.0907 301.126 25.6171C300.586 26.1653 299.895 26.4285 299.032 26.4285C298.168 26.4285 297.477 26.1434 296.98 25.6171Z" fill="white"/>
<path d="M306.329 31.9778V29.8285C306.329 29.4118 306.523 29.2145 306.934 29.2145H312.375C312.72 29.2145 312.936 29.4118 313.022 29.8285L313.389 32.1752C314.879 29.8943 317.017 28.7539 319.78 28.7539C323.904 28.7539 325.977 31.0567 325.977 35.6622V46.1015H328.287C328.697 46.1015 328.892 46.2988 328.892 46.7155V48.7113C328.892 49.128 328.697 49.3253 328.287 49.3253H319.564C319.154 49.3253 318.96 49.128 318.96 48.7113V46.7155C318.96 46.2988 319.154 46.1015 319.564 46.1015H321.486V37.7018C321.486 35.9912 321.27 34.7411 320.838 33.9735C320.407 33.184 319.543 32.7892 318.204 32.7892C316.866 32.7892 315.764 33.2059 314.879 34.0174C313.994 34.8288 313.562 35.7499 313.562 36.7807V46.1234H316.045C316.455 46.1234 316.65 46.3208 316.65 46.7375V48.7332C316.65 49.1499 316.455 49.3473 316.045 49.3473H306.977C306.567 49.3473 306.372 49.1499 306.372 48.7332V46.7155C306.372 46.2988 306.567 46.1015 306.977 46.1015H309.093V32.548H306.934C306.523 32.548 306.329 32.3726 306.329 31.9778Z" fill="white"/>
<path d="M349.272 46.1231H351C351.41 46.1231 351.604 46.3204 351.604 46.7371V48.7329C351.604 49.1496 351.41 49.3469 351 49.3469H346.487C346.142 49.3469 345.947 49.1496 345.883 48.7329L345.559 46.3424C344.198 48.6671 342.018 49.8294 339.038 49.8294C336.426 49.8294 334.418 48.996 332.993 47.3293C331.589 45.6625 330.877 43.0746 330.877 39.5656C330.877 36.0566 331.697 33.381 333.338 31.5388C334.979 29.6966 337.095 28.7755 339.664 28.7755C340.83 28.7755 341.867 28.9948 342.773 29.4554C343.68 29.894 344.35 30.4423 344.781 31.0563V22.3935H342.665C342.255 22.3935 342.061 22.1961 342.061 21.7794V19.6302C342.061 19.2135 342.255 19.0161 342.665 19.0161H348.668C349.078 19.0161 349.272 19.2135 349.272 19.6302V46.1231ZM344.781 41.693V34.5434C344.436 33.9951 343.831 33.5126 342.968 33.0301C342.104 32.5696 341.219 32.3503 340.355 32.3503C337.052 32.3503 335.389 34.6311 335.389 39.1709C335.389 42.6579 336.145 44.851 337.635 45.7064C338.283 46.0792 339.146 46.2766 340.269 46.2766C341.392 46.2766 342.428 45.8599 343.378 45.0265C344.306 44.1712 344.781 43.0746 344.781 41.693Z" fill="white"/>
<path d="M357.068 30.5518C358.428 29.3675 360.155 28.7754 362.228 28.7754C364.301 28.7754 366.114 29.0166 367.626 29.4991C367.993 29.6088 368.187 29.85 368.187 30.2229V34.5214C368.187 34.9381 367.993 35.1354 367.583 35.1354H365.272C364.841 35.1354 364.668 34.9381 364.754 34.5214L364.949 32.4598C364.15 32.0212 363.264 31.8019 362.314 31.8019C360.177 31.8019 359.119 32.5695 359.119 34.0827C359.119 34.8723 359.464 35.4863 360.155 35.9469C360.846 36.4074 361.688 36.7803 362.682 37.0654C363.675 37.3505 364.668 37.6795 365.661 38.0304C366.654 38.4032 367.496 39.0173 368.209 39.8945C368.9 40.7718 369.245 41.8902 369.245 43.25C369.245 45.3115 368.533 46.9125 367.129 48.0529C365.726 49.1933 363.74 49.7855 361.17 49.7855C359.378 49.7855 357.5 49.5223 355.535 48.974C355.189 48.8644 355.017 48.6012 355.017 48.2064V43.9079C355.017 43.4912 355.211 43.2938 355.621 43.2938H357.932C358.342 43.2938 358.515 43.4912 358.493 43.9079L358.363 46.0133C359.076 46.5616 360.112 46.8248 361.451 46.8248C363.826 46.8248 365.013 45.9694 365.013 44.2588C365.013 43.4035 364.668 42.7017 363.999 42.1973C363.329 41.6929 362.487 41.32 361.516 41.0349C360.544 40.7718 359.572 40.4647 358.579 40.1138C357.586 39.7848 356.766 39.1708 356.075 38.3374C355.405 37.4821 355.06 36.3636 355.06 34.9819C355.017 33.2494 355.708 31.758 357.068 30.5518Z" fill="white"/>
</svg>
