<svg width="442" height="89" viewBox="0 0 442 89" fill="none" xmlns="http://www.w3.org/2000/svg">
<g clipPath="url(#clip0)">
<path d="M46.4326 43.454C47.342 45.2657 47.8977 47.6642 48.0745 50.2668C50.4995 48.1745 56.4103 47.0518 61.1087 48.94C56.183 48.94 50.0701 51.6192 48.0998 54.4259C47.7461 59.9119 45.9274 65.3723 42.8457 67.3881C56.2083 69.5059 61.5886 51.5426 72.8293 52.946C68.3583 41.8465 52.2172 39.4735 46.4326 43.454Z" fill="#6CA448"/>
<path d="M35.9497 15.9986C20.1874 17.9889 7.12801 47.2303 18.7729 86.1933C19.657 89.1532 21.8799 88.8215 25.8709 88.4132C48.125 86.0402 90.7387 81.4218 93.3405 52.0528C94.9824 33.5282 80.4579 20.2598 62.6496 19.0861C62.2454 19.0606 61.8918 18.7544 61.6897 18.3972C58.9616 13.0898 49.1354 0.331787 35.6466 0.331787C-3.88536 0.331787 -5.02207 66.8521 5.9913 84.7389C8.54257 88.898 12.2811 88.4132 11.3464 85.683C1.41924 57.3091 10.0077 9.13483 36.657 9.13483C45.1949 9.13483 51.1057 14.4932 56.865 25.5927C57.0924 26.052 57.5723 26.2306 58.0775 26.2816C77.4014 28.8587 85.0805 41.5657 83.8932 52.1549C82.5545 64.0199 73.7892 76.7779 25.1637 82.2383C22.8397 77.5179 17.4341 47.7151 26.0983 33.5792C22.1072 50.777 26.0983 66.1632 29.3821 71.5981C39.4608 67.4901 43.1993 62.8461 43.1993 52.5121C43.1993 37.3046 29.3568 28.5781 35.9497 15.9986Z" fill="#6CA448"/>
<path d="M107.738 89C107.233 89 106.829 88.5918 106.829 88.0814V0.918578C106.829 0.408257 107.233 0 107.738 0C108.244 0 108.648 0.408257 108.648 0.918578V88.1069C108.673 88.5917 108.244 89 107.738 89Z" fill="#6CA448"/>
<path d="M121.909 37.7382V35.6204C121.909 35.1866 122.111 34.9825 122.541 34.9825H124.814V12.5283H122.591C122.162 12.5283 121.96 12.3242 121.96 11.8904V9.69604C121.96 9.23675 122.162 9.00711 122.591 9.00711C126.027 8.85401 129.26 8.80298 132.367 8.80298C135.449 8.80298 137.924 9.38985 139.743 10.5891C141.587 11.7884 142.496 13.4979 142.496 15.7178C142.496 17.3253 142.016 18.7287 141.031 19.928C140.046 21.1272 138.884 21.9948 137.545 22.5561C139.743 22.9134 141.41 23.7299 142.572 25.0312C143.734 26.3325 144.315 27.9145 144.315 29.7772C144.315 32.2267 143.405 34.217 141.612 35.7224C139.819 37.2279 137.419 38.0954 134.463 38.2995C133.226 38.3761 131.255 38.4271 128.553 38.4271H122.566C122.111 38.3761 121.909 38.172 121.909 37.7382ZM129.613 12.2476V21.1783H131.23C135.449 21.1783 137.57 19.6983 137.57 16.713C137.57 15.0289 137.065 13.8807 136.03 13.2428C134.994 12.6049 133.529 12.2732 131.609 12.2732H129.613V12.2476ZM129.613 24.7505V35.059H131.533C134.034 35.059 136.004 34.6507 137.368 33.8597C138.758 33.0432 139.44 31.6654 139.44 29.6751C139.44 26.4091 137.192 24.776 132.67 24.776H129.613V24.7505Z" fill="#2C3336"/>
<path d="M156.718 38.9119C153.308 38.9119 150.832 37.9168 149.241 35.901C147.649 33.8852 146.866 31.2316 146.866 27.94C146.866 24.6484 147.7 21.8927 149.392 19.7493C151.085 17.5805 153.51 16.5088 156.667 16.5088C158.233 16.5088 159.597 16.815 160.709 17.4019C161.845 17.9887 162.704 18.8052 163.31 19.8004C164.447 21.7651 165.028 24.036 165.028 26.5876C165.028 27.7869 164.978 28.4503 164.851 28.5779C164.725 28.7055 164.523 28.7565 164.22 28.7565H151.64C151.792 30.8233 152.297 32.4308 153.156 33.579C154.015 34.7273 155.53 35.2886 157.677 35.2886C159.244 35.2886 160.86 34.9059 162.527 34.1659C162.932 33.9618 163.209 34.0894 163.386 34.5231L164.195 36.5134C164.346 36.8706 164.22 37.1513 163.816 37.3809C161.896 38.3761 159.547 38.9119 156.718 38.9119ZM151.615 25.5415H160.532C160.582 21.9437 159.193 20.1321 156.339 20.1321C154.646 20.1321 153.459 20.6679 152.752 21.7651C152.045 22.8368 151.666 24.0871 151.615 25.5415Z" fill="#2C3336"/>
<path d="M180.361 25.5416V24.0361C180.361 21.9949 179.78 20.6935 178.643 20.1832C178.113 19.9536 177.304 19.826 176.294 19.826C174.349 19.826 173.187 20.7446 172.783 22.5817C172.707 23.0155 172.48 23.2196 172.151 23.2196H169.398C168.943 23.2196 168.741 23.0155 168.792 22.5817C168.918 20.4894 169.752 18.9329 171.318 17.9633C172.884 16.9937 174.879 16.4834 177.304 16.4834C182.407 16.4834 184.958 18.8564 184.958 23.5769V34.957H186.802C187.232 34.957 187.434 35.1611 187.434 35.5949V37.7128C187.434 38.1465 187.232 38.3507 186.802 38.3507H181.75C181.371 38.3507 181.169 38.1465 181.119 37.7128L180.816 35.7225C179.275 37.8403 177.052 38.8865 174.147 38.8865C172.328 38.8865 170.813 38.4017 169.6 37.4321C168.413 36.4625 167.807 34.906 167.807 32.7882C167.807 29.9814 168.969 28.0677 171.267 27.047C173.187 26.154 175.46 25.6692 178.113 25.5671C178.668 25.5926 179.426 25.5671 180.361 25.5416ZM180.437 31.8441V28.5015C177.683 28.5015 176.016 28.629 175.385 28.8842C174.753 29.1394 174.197 29.3945 173.717 29.6752C172.808 30.16 172.353 31.0531 172.353 32.3544C172.353 34.3446 173.49 35.3398 175.738 35.3398C177.229 35.3398 178.391 34.9825 179.199 34.2681C180.033 33.6047 180.437 32.7882 180.437 31.8441Z" fill="#2C3336"/>
<path d="M210.597 34.957H212.491C212.921 34.957 213.123 35.1611 213.123 35.5949V37.7127C213.123 38.1465 212.921 38.3506 212.491 38.3506H207.692C207.338 38.3506 207.136 38.1465 207.06 37.7127L206.681 35.2887C204.863 37.6872 202.463 38.8864 199.482 38.8864C194.86 38.8864 192.536 36.4369 192.536 31.5378V20.5149H190.262C189.833 20.5149 189.631 20.3107 189.631 19.877V17.6316C189.631 17.1978 189.833 16.9937 190.262 16.9937H196.678C197.108 16.9937 197.31 17.1978 197.31 17.6316V30.262C197.31 31.9971 197.537 33.2219 197.967 33.9618C198.421 34.7018 199.356 35.059 200.796 35.059C202.236 35.059 203.423 34.6252 204.383 33.7577C205.317 32.8902 205.797 31.9205 205.797 30.8234V20.5149H203.094C202.665 20.5149 202.463 20.3107 202.463 19.877V17.6316C202.463 17.1978 202.665 16.9937 203.094 16.9937H209.94C210.369 16.9937 210.571 17.1978 210.571 17.6316V34.957H210.597Z" fill="#2C3336"/>
<path d="M222.924 20.5149V31.4102C222.924 32.7626 223.101 33.7577 223.429 34.3446C223.783 34.957 224.415 35.2631 225.349 35.2631C226.284 35.2631 227.193 35.059 228.103 34.6508C228.406 34.5232 228.633 34.6508 228.785 35.008L229.568 36.9982C229.593 37.0748 229.618 37.2024 229.618 37.3555C229.618 37.5086 229.467 37.6872 229.189 37.8403C227.825 38.5292 226.183 38.8864 224.314 38.8864C221.762 38.8864 220.095 38.223 219.312 36.8962C218.731 36.0286 218.403 35.1866 218.327 34.3956C218.201 33.2984 218.15 32.1502 218.15 30.9254V20.5149H215.7C215.27 20.5149 215.068 20.3107 215.068 19.877V17.6316C215.068 17.1978 215.27 16.9937 215.7 16.9937H218.15V11.125C218.15 10.6912 218.352 10.4871 218.782 10.4871H222.293C222.722 10.4871 222.924 10.6912 222.924 11.125V16.9681H227.244C227.673 16.9681 227.875 17.1723 227.875 17.606V19.8515C227.875 20.2852 227.673 20.4894 227.244 20.4894H222.924V20.5149Z" fill="#2C3336"/>
<path d="M239.015 34.957H241.717C242.147 34.957 242.349 35.1611 242.349 35.5949V37.7127C242.349 38.1465 242.147 38.3506 241.717 38.3506H231.512C231.083 38.3506 230.881 38.1465 230.881 37.7127V35.5949C230.881 35.1611 231.083 34.957 231.512 34.957H234.215V20.5149H231.891C231.462 20.5149 231.26 20.3107 231.26 19.877V17.6315C231.26 17.1978 231.462 16.9936 231.891 16.9936H238.358C238.787 16.9936 238.989 17.1978 238.989 17.6315V34.957H239.015ZM233.836 13.1152C233.306 12.5283 233.028 11.8139 233.028 10.9208C233.028 10.0278 233.306 9.28779 233.862 8.70092C234.417 8.11405 235.15 7.80786 236.084 7.80786C237.019 7.80786 237.752 8.11405 238.307 8.70092C238.863 9.28779 239.141 10.0278 239.141 10.9208C239.141 11.8139 238.863 12.5538 238.282 13.1152C237.701 13.7021 236.969 13.9827 236.034 13.9827C235.125 13.9827 234.392 13.7021 233.836 13.1152Z" fill="#2C3336"/>
<path d="M251.745 20.4894V34.957H256.292C256.722 34.957 256.924 35.1611 256.924 35.5949V37.7127C256.924 38.1465 256.722 38.3506 256.292 38.3506H244.294C243.864 38.3506 243.662 38.1465 243.662 37.7127V35.5949C243.662 35.1611 243.864 34.957 244.294 34.957H246.946V20.4894H244.294C243.864 20.4894 243.662 20.2853 243.662 19.8515V17.6571C243.662 17.2233 243.864 17.0192 244.294 17.0192H246.946V12.7835C246.946 9.31336 248.007 7.11898 250.154 6.17489C251.038 5.76663 252.251 5.5625 253.791 5.5625C255.332 5.5625 256.898 5.91973 258.49 6.63417C258.742 6.76175 258.869 6.88934 258.869 7.06795C258.869 7.24656 258.843 7.37414 258.818 7.45069L258.187 9.61955C258.035 9.97678 257.808 10.0788 257.454 9.92575C256.317 9.41543 255.231 9.13475 254.196 9.13475C253.16 9.13475 252.503 9.46646 252.175 10.1554C251.872 10.8443 251.695 12.0436 251.695 13.8042V16.9682H256.873C257.303 16.9682 257.505 17.1723 257.505 17.6061V19.8005C257.505 20.2342 257.303 20.4384 256.873 20.4384H251.745V20.4894Z" fill="#2C3336"/>
<path d="M279.961 34.957H281.855C282.285 34.957 282.487 35.1611 282.487 35.5949V37.7127C282.487 38.1465 282.285 38.3506 281.855 38.3506H277.056C276.702 38.3506 276.5 38.1465 276.425 37.7127L276.046 35.2887C274.227 37.6872 271.827 38.8864 268.847 38.8864C264.224 38.8864 261.9 36.4369 261.9 31.5378V20.5149H259.627C259.197 20.5149 258.995 20.3107 258.995 19.877V17.6316C258.995 17.1978 259.197 16.9937 259.627 16.9937H266.043C266.472 16.9937 266.674 17.1978 266.674 17.6316V30.262C266.674 31.9971 266.902 33.2219 267.331 33.9618C267.786 34.7018 268.72 35.059 270.16 35.059C271.6 35.059 272.787 34.6252 273.747 33.7577C274.682 32.8902 275.162 31.9205 275.162 30.8234V20.5149H272.459C272.029 20.5149 271.827 20.3107 271.827 19.877V17.6316C271.827 17.1978 272.029 16.9937 272.459 16.9937H279.304C279.734 16.9937 279.936 17.1978 279.936 17.6316V34.957H279.961Z" fill="#2C3336"/>
<path d="M292.591 6.76173V34.957H295.294C295.723 34.957 295.925 35.1611 295.925 35.5949V37.7127C295.925 38.1465 295.723 38.3506 295.294 38.3506H285.089C284.659 38.3506 284.457 38.1465 284.457 37.7127V35.5949C284.457 35.1611 284.659 34.957 285.089 34.957H287.791V9.67056H285.467C285.038 9.67056 284.836 9.46643 284.836 9.03266V6.78724C284.836 6.35347 285.038 6.14934 285.467 6.14934H291.934C292.389 6.12383 292.591 6.32796 292.591 6.76173Z" fill="#2C3336"/>
<path d="M325.328 38.3762H322.499C322.07 38.3762 321.767 38.172 321.59 37.7638L313.279 16.4324V34.957H315.982C316.412 34.957 316.614 35.1611 316.614 35.5949V37.7128C316.614 38.1465 316.412 38.3507 315.982 38.3507H307.293C306.863 38.3507 306.661 38.1465 306.661 37.7128V35.5949C306.661 35.1611 306.863 34.957 307.293 34.957H309.566V12.5029H307.293C306.863 12.5029 306.661 12.2988 306.661 11.865V9.67062C306.661 9.23684 306.863 9.03271 307.293 9.03271H314.795C315.25 9.03271 315.527 9.23684 315.654 9.6451L324.469 32.8647L333.513 9.6451C333.639 9.23684 333.917 9.03271 334.371 9.03271H341.52C341.949 9.03271 342.151 9.23684 342.151 9.67062V11.865C342.151 12.2988 341.949 12.5029 341.52 12.5029H339.247V34.957H341.52C341.949 34.957 342.151 35.1611 342.151 35.5949V37.7128C342.151 38.1465 341.949 38.3507 341.52 38.3507H332.098C331.669 38.3507 331.466 38.1465 331.466 37.7128V35.5949C331.466 35.1611 331.669 34.957 332.098 34.957H334.674V16.5089L326.238 37.7893C326.036 38.1976 325.758 38.3762 325.328 38.3762Z" fill="#2C3336"/>
<path d="M352.685 34.957H355.387C355.817 34.957 356.019 35.1611 356.019 35.5949V37.7127C356.019 38.1465 355.817 38.3506 355.387 38.3506H345.182C344.753 38.3506 344.551 38.1465 344.551 37.7127V35.5949C344.551 35.1611 344.753 34.957 345.182 34.957H347.885V20.5149H345.561C345.132 20.5149 344.93 20.3107 344.93 19.877V17.6315C344.93 17.1978 345.132 16.9936 345.561 16.9936H352.028C352.457 16.9936 352.659 17.1978 352.659 17.6315V34.957H352.685ZM347.506 13.1152C346.976 12.5283 346.698 11.8139 346.698 10.9208C346.698 10.0278 346.976 9.28779 347.531 8.70092C348.087 8.11405 348.82 7.80786 349.754 7.80786C350.689 7.80786 351.422 8.11405 351.977 8.70092C352.533 9.28779 352.811 10.0278 352.811 10.9208C352.811 11.8139 352.533 12.5538 351.952 13.1152C351.371 13.7021 350.638 13.9827 349.704 13.9827C348.769 13.9827 348.037 13.7021 347.506 13.1152Z" fill="#2C3336"/>
<path d="M357.535 19.9026V17.6061C357.535 17.1723 357.737 16.9682 358.167 16.9682H364.002C364.381 16.9682 364.608 17.1723 364.684 17.6061L365.063 20.1067C366.654 17.6827 368.953 16.4834 371.908 16.4834C376.329 16.4834 378.551 18.9329 378.551 23.832V34.957H381.027C381.456 34.957 381.658 35.1612 381.658 35.5949V37.7128C381.658 38.1465 381.456 38.3507 381.027 38.3507H371.681C371.251 38.3507 371.049 38.1465 371.049 37.7128V35.5949C371.049 35.1612 371.251 34.957 371.681 34.957H373.727V26.0264C373.727 24.2148 373.499 22.8879 373.045 22.0459C372.59 21.2039 371.655 20.7956 370.216 20.7956C368.776 20.7956 367.614 21.2294 366.654 22.0969C365.719 22.9645 365.239 23.9341 365.239 25.0313V34.9825H367.892C368.321 34.9825 368.523 35.1867 368.523 35.6204V37.7383C368.523 38.1721 368.321 38.3762 367.892 38.3762H358.167C357.737 38.3762 357.535 38.1721 357.535 37.7383V35.6204C357.535 35.1867 357.737 34.9825 358.167 34.9825H360.44V20.5149H358.116C357.737 20.5149 357.535 20.3108 357.535 19.9026Z" fill="#2C3336"/>
<path d="M403.508 34.9569H405.352C405.781 34.9569 405.983 35.161 405.983 35.5948V37.7127C405.983 38.1464 405.781 38.3506 405.352 38.3506H400.502C400.123 38.3506 399.921 38.1464 399.87 37.7127L399.516 35.161C398.051 37.6361 395.727 38.8864 392.545 38.8864C389.741 38.8864 387.594 37.9933 386.078 36.2327C384.562 34.4466 383.805 31.7164 383.805 27.9655C383.805 24.2402 384.689 21.3824 386.432 19.4176C388.2 17.4529 390.448 16.4833 393.227 16.4833C394.49 16.4833 395.601 16.7129 396.561 17.1977C397.521 17.6826 398.253 18.2439 398.708 18.9073V9.69603H396.435C396.005 9.69603 395.803 9.4919 395.803 9.05813V6.76168C395.803 6.32791 396.005 6.12378 396.435 6.12378H402.851C403.28 6.12378 403.482 6.32791 403.482 6.76168V34.9569H403.508ZM398.708 30.262V22.6327C398.329 22.0458 397.698 21.5355 396.763 21.0252C395.828 20.5403 394.894 20.2852 393.959 20.2852C390.423 20.2852 388.655 22.7092 388.655 27.5573C388.655 31.2826 389.463 33.6046 391.054 34.5231C391.736 34.9314 392.671 35.1355 393.883 35.1355C395.096 35.1355 396.182 34.6762 397.193 33.7832C398.203 32.9156 398.708 31.7164 398.708 30.262Z" fill="#2C3336"/>
<path d="M411.869 18.3971C413.334 17.1213 415.178 16.4834 417.401 16.4834C419.624 16.4834 421.544 16.7386 423.186 17.2744C423.59 17.402 423.792 17.6571 423.792 18.0654V22.6583C423.792 23.0921 423.59 23.2962 423.161 23.2962H420.685C420.23 23.2962 420.054 23.0921 420.129 22.6583L420.331 20.4639C419.473 20.0046 418.538 19.775 417.502 19.775C415.229 19.775 414.067 20.5915 414.067 22.199C414.067 23.041 414.446 23.7044 415.178 24.1892C415.911 24.6741 416.82 25.0823 417.881 25.3885C418.942 25.6947 420.003 26.0264 421.064 26.4347C422.125 26.8174 423.034 27.4808 423.792 28.4249C424.525 29.369 424.904 30.5427 424.904 31.9972C424.904 34.1915 424.146 35.9011 422.63 37.1259C421.115 38.3507 418.993 38.963 416.239 38.963C414.32 38.963 412.324 38.6824 410.202 38.0955C409.823 37.9679 409.646 37.7128 409.646 37.279V32.6861C409.646 32.2523 409.849 32.0482 410.278 32.0482H412.753C413.183 32.0482 413.385 32.2523 413.36 32.6861L413.233 34.9315C414.016 35.5184 415.103 35.799 416.542 35.799C419.094 35.799 420.357 34.8805 420.357 33.0688C420.357 32.1503 420.003 31.4103 419.271 30.8744C418.538 30.3386 417.654 29.9304 416.618 29.6497C415.583 29.369 414.522 29.0373 413.461 28.6801C412.4 28.3228 411.516 27.6849 410.783 26.7664C410.051 25.8478 409.697 24.6741 409.697 23.1941C409.672 21.2549 410.404 19.6729 411.869 18.3971Z" fill="#2C3336"/>
<path d="M429.425 13.2939V7.04245H427.025V6.35352H432.608V7.04245H430.208V13.2939H429.425Z" fill="#2C3336"/>
<path d="M441.348 6.35352H442.004V13.2939H441.272V8.13964L439.049 13.2939H438.493L436.245 8.19067V13.2939H435.513V6.35352H436.169L438.771 12.3243L441.348 6.35352Z" fill="#2C3336"/>
<path d="M143.532 50.0883H146.134L140.854 65.1427H138.657L134.893 54.2984L131.104 65.1172H128.906L123.652 50.0627H126.406L130.119 61.2898L133.984 50.0627H135.903L139.692 61.3664L143.532 50.0883Z" fill="#6CA448"/>
<path d="M150.302 65.1172V50.0627H160.254V52.2316H152.929V56.3907H159.825V58.5341H152.929V62.9483H160.254V65.1172H150.302Z" fill="#6CA448"/>
<path d="M164.852 65.1172V50.0627H167.554V62.8718H174.526V65.1172H164.852Z" fill="#6CA448"/>
<path d="M178.669 65.1172V50.0627H181.372V62.8718H188.344V65.1172H178.669Z" fill="#6CA448"/>
<path d="M202.489 50.0881H205.015V65.1426H202.994L194.962 54.6045V65.1426H192.461V50.0881H194.482L202.489 60.6263V50.0881Z" fill="#6CA448"/>
<path d="M210.37 65.1172V50.0627H220.323V52.2316H212.997V56.3907H219.893V58.5341H212.997V62.9483H220.323V65.1172H210.37Z" fill="#6CA448"/>
<path d="M226.537 64.8619C225.551 64.5558 224.693 64.0965 223.985 63.5351L224.895 61.5449C225.627 62.1062 226.385 62.489 227.168 62.7696C227.951 63.0248 228.81 63.1524 229.745 63.1524C230.78 63.1524 231.563 62.9738 232.144 62.591C232.7 62.2338 233.003 61.698 233.003 61.0601C233.003 60.4987 232.751 60.0649 232.22 59.7587C231.69 59.4525 230.831 59.1719 229.644 58.8912C227.774 58.4829 226.41 57.9471 225.551 57.3092C224.693 56.6713 224.263 55.7272 224.263 54.4769C224.263 53.5839 224.491 52.7929 224.97 52.1039C225.45 51.415 226.107 50.8792 226.991 50.4709C227.875 50.0882 228.861 49.884 230.022 49.884C231.058 49.884 232.069 50.0371 233.003 50.3688C233.938 50.675 234.721 51.1343 235.327 51.6957L234.418 53.6859C233.104 52.6142 231.639 52.0784 230.022 52.0784C229.063 52.0784 228.305 52.2825 227.749 52.6908C227.193 53.0991 226.916 53.6349 226.916 54.3238C226.916 54.9107 227.168 55.37 227.648 55.6762C228.153 55.9824 228.987 56.263 230.199 56.5437C231.437 56.8499 232.447 57.1561 233.231 57.5133C234.014 57.8706 234.62 58.3043 235.024 58.8402C235.453 59.376 235.655 60.0649 235.655 60.8814C235.655 61.7745 235.428 62.5655 234.948 63.2289C234.468 63.8923 233.786 64.4282 232.902 64.7854C232.018 65.1426 230.957 65.3468 229.745 65.3468C228.608 65.3212 227.522 65.1681 226.537 64.8619Z" fill="#6CA448"/>
<path d="M242.097 64.8619C241.112 64.5558 240.253 64.0965 239.546 63.5351L240.455 61.5449C241.188 62.1062 241.946 62.489 242.729 62.7696C243.512 63.0248 244.371 63.1524 245.305 63.1524C246.341 63.1524 247.124 62.9738 247.705 62.591C248.261 62.2338 248.564 61.698 248.564 61.0601C248.564 60.4987 248.311 60.0649 247.781 59.7587C247.25 59.4525 246.391 59.1719 245.204 58.8912C243.335 58.4829 241.971 57.9471 241.112 57.3092C240.253 56.6713 239.824 55.7272 239.824 54.4769C239.824 53.5839 240.051 52.7929 240.531 52.1039C241.011 51.415 241.668 50.8792 242.552 50.4709C243.436 50.0882 244.421 49.884 245.583 49.884C246.619 49.884 247.629 50.0371 248.564 50.3688C249.498 50.675 250.281 51.1343 250.888 51.6957L249.978 53.6859C248.665 52.6142 247.2 52.0784 245.583 52.0784C244.623 52.0784 243.865 52.2825 243.31 52.6908C242.754 53.0991 242.476 53.6349 242.476 54.3238C242.476 54.9107 242.729 55.37 243.209 55.6762C243.714 55.9824 244.547 56.263 245.76 56.5437C246.998 56.8499 248.008 57.1561 248.791 57.5133C249.574 57.8706 250.18 58.3043 250.585 58.8402C251.014 59.376 251.216 60.0649 251.216 60.8814C251.216 61.7745 250.989 62.5655 250.509 63.2289C250.029 63.8923 249.347 64.4282 248.463 64.7854C247.579 65.1426 246.518 65.3468 245.305 65.3468C244.168 65.3212 243.108 65.1681 242.097 64.8619Z" fill="#6CA448"/>
<path d="M130.775 83.361L129.84 81.1411H125.344L124.384 83.361H123.349L127.112 74.6855H127.971L131.735 83.361H130.775ZM125.698 80.2991H129.487L127.592 75.8338L125.698 80.2991Z" fill="#2C3336"/>
<path d="M146.966 74.6855H147.901V83.361H147.118L141.965 76.3951V83.361H141.03V74.6855H141.788L146.966 81.6514V74.6855Z" fill="#2C3336"/>
<path d="M153.964 82.9271C153.383 82.5699 152.928 82.0596 152.6 81.3962C152.272 80.7327 152.12 79.9417 152.12 79.0487C152.12 78.1301 152.272 77.3646 152.6 76.6757C152.903 76.0123 153.358 75.502 153.939 75.1447C154.52 74.7875 155.227 74.6089 156.035 74.6089C156.844 74.6089 157.526 74.7875 158.132 75.1447C158.713 75.502 159.168 76.0123 159.471 76.6757C159.774 77.3391 159.951 78.1301 159.951 79.0232C159.951 79.9417 159.799 80.7072 159.471 81.3962C159.142 82.0596 158.713 82.5699 158.107 82.9271C157.526 83.2843 156.818 83.463 156.035 83.463C155.227 83.463 154.545 83.2843 153.964 82.9271ZM158.157 81.6768C158.662 81.0645 158.915 80.1714 158.915 79.0232C158.915 77.8749 158.662 77.0074 158.157 76.3695C157.652 75.7571 156.945 75.4509 156.035 75.4509C155.126 75.4509 154.419 75.7571 153.914 76.395C153.408 77.0074 153.156 77.9005 153.156 79.0232C153.156 80.1714 153.408 81.0645 153.914 81.6768C154.419 82.3147 155.126 82.6209 156.035 82.6209C156.945 82.5954 157.652 82.2892 158.157 81.6768Z" fill="#2C3336"/>
<path d="M170.105 74.6855H171.04V83.361H170.256L165.078 76.3951V83.361H164.144V74.6855H164.901L170.08 81.6514V74.6855H170.105Z" fill="#2C3336"/>
<path d="M175.385 80.5033V79.6868H178.795V80.5033H175.385Z" fill="#2C3336"/>
<path d="M183.139 74.6855H186.574C187.458 74.6855 188.14 74.8897 188.645 75.3234C189.151 75.7572 189.378 76.3441 189.378 77.1096C189.378 77.8751 189.125 78.4619 188.62 78.8957C188.115 79.3295 187.433 79.5591 186.549 79.5591H184.124V83.361H183.139V74.6855ZM186.473 78.7171C187.104 78.7171 187.584 78.5895 187.913 78.3088C188.241 78.0281 188.393 77.6454 188.393 77.1096C188.393 76.5993 188.241 76.191 187.913 75.9103C187.584 75.6296 187.104 75.5021 186.473 75.5021H184.124V78.6916H186.473V78.7171Z" fill="#2C3336"/>
<path d="M200.139 83.361H199.078L198.017 80.4777C197.891 80.1205 197.714 79.8908 197.487 79.7632C197.259 79.6357 196.931 79.5846 196.527 79.5846H194.38V83.361H193.395V74.6855H196.805C197.739 74.6855 198.447 74.8897 198.926 75.2979C199.432 75.7062 199.659 76.3186 199.659 77.0841C199.659 77.6454 199.507 78.1302 199.23 78.513C198.926 78.8957 198.522 79.1764 197.967 79.3295C198.219 79.3805 198.421 79.4826 198.598 79.6612C198.775 79.8398 198.926 80.095 199.053 80.4011L200.139 83.361ZM196.729 78.7426C198.042 78.7426 198.699 78.2068 198.699 77.1096C198.699 76.5737 198.548 76.1655 198.219 75.9103C197.891 75.6552 197.411 75.5276 196.729 75.5276H194.38V78.7426H196.729Z" fill="#2C3336"/>
<path d="M205.62 82.9271C205.039 82.5699 204.585 82.0596 204.256 81.3962C203.928 80.7327 203.776 79.9417 203.776 79.0487C203.776 78.1301 203.928 77.3646 204.256 76.6757C204.559 76.0123 205.014 75.502 205.595 75.1447C206.176 74.7875 206.883 74.6089 207.692 74.6089C208.5 74.6089 209.182 74.7875 209.788 75.1447C210.369 75.502 210.824 76.0123 211.127 76.6757C211.43 77.3391 211.607 78.1301 211.607 79.0232C211.607 79.9417 211.455 80.7072 211.127 81.3962C210.799 82.0596 210.369 82.5699 209.763 82.9271C209.182 83.2843 208.475 83.463 207.692 83.463C206.883 83.463 206.201 83.2843 205.62 82.9271ZM209.813 81.6768C210.319 81.0645 210.571 80.1714 210.571 79.0232C210.571 77.8749 210.319 77.0074 209.813 76.3695C209.308 75.7571 208.601 75.4509 207.692 75.4509C206.782 75.4509 206.075 75.7571 205.57 76.395C205.065 77.0074 204.812 77.9005 204.812 79.0232C204.812 80.1714 205.065 81.0645 205.57 81.6768C206.075 82.3147 206.782 82.6209 207.692 82.6209C208.601 82.5954 209.308 82.2892 209.813 81.6768Z" fill="#2C3336"/>
<path d="M215.825 83.361V74.6855H221.13V75.5276H216.81V78.5385H220.902V79.3805H216.81V83.361H215.825Z" fill="#2C3336"/>
<path d="M225.021 83.361V74.6855H226.006V83.361H225.021Z" fill="#2C3336"/>
<path d="M232.598 83.3611V75.5532H229.617V74.7112H236.589V75.5532H233.608V83.3611H232.598Z" fill="#2C3336"/>
<path d="M247.275 82.9271C246.694 82.5699 246.239 82.0596 245.911 81.3962C245.582 80.7327 245.431 79.9417 245.431 79.0487C245.431 78.1301 245.582 77.3646 245.911 76.6757C246.239 75.9868 246.668 75.502 247.249 75.1447C247.83 74.7875 248.538 74.6089 249.346 74.6089C250.154 74.6089 250.836 74.7875 251.443 75.1447C252.024 75.502 252.478 76.0123 252.781 76.6757C253.084 77.3391 253.261 78.1301 253.261 79.0232C253.261 79.9417 253.11 80.7072 252.781 81.3962C252.453 82.0596 252.024 82.5699 251.417 82.9271C250.836 83.2843 250.129 83.463 249.346 83.463C248.563 83.463 247.881 83.2843 247.275 82.9271ZM251.493 81.6768C251.998 81.0645 252.251 80.1714 252.251 79.0232C252.251 77.8749 251.998 77.0074 251.493 76.3695C250.988 75.7571 250.281 75.4509 249.371 75.4509C248.462 75.4509 247.755 75.7571 247.249 76.395C246.744 77.0074 246.492 77.9005 246.492 79.0232C246.492 80.1714 246.744 81.0645 247.249 81.6768C247.755 82.3147 248.462 82.6209 249.371 82.6209C250.281 82.5954 250.988 82.2892 251.493 81.6768Z" fill="#2C3336"/>
<path d="M264.224 83.361H263.163L262.102 80.4777C261.976 80.1205 261.799 79.8908 261.572 79.7632C261.344 79.6357 261.016 79.5846 260.612 79.5846H258.465V83.361H257.479V74.6855H260.89C261.824 74.6855 262.531 74.8897 263.011 75.2979C263.517 75.7062 263.744 76.3186 263.744 77.0841C263.744 77.6454 263.592 78.1302 263.315 78.513C263.011 78.8957 262.607 79.1764 262.052 79.3295C262.304 79.3805 262.506 79.4826 262.683 79.6612C262.86 79.8398 263.011 80.095 263.138 80.4011L264.224 83.361ZM260.814 78.7426C262.127 78.7426 262.784 78.2068 262.784 77.1096C262.784 76.5737 262.633 76.1655 262.304 75.9103C261.976 75.6552 261.496 75.5276 260.814 75.5276H258.465V78.7426H260.814Z" fill="#2C3336"/>
<path d="M274.985 78.8447V82.8507C274.657 83.0293 274.202 83.1824 273.671 83.2845C273.116 83.3865 272.56 83.4376 272.004 83.4376C271.145 83.4376 270.413 83.259 269.807 82.9017C269.175 82.5445 268.72 82.0342 268.392 81.3708C268.064 80.7074 267.912 79.9164 267.912 78.9723C267.912 78.0537 268.064 77.2627 268.392 76.5993C268.72 75.9359 269.175 75.4255 269.781 75.0683C270.388 74.7111 271.095 74.5325 271.928 74.5325C272.535 74.5325 273.09 74.6345 273.596 74.8131C274.101 74.9918 274.53 75.2724 274.884 75.6297L274.505 76.3951C274.076 76.0379 273.671 75.7828 273.293 75.6297C272.888 75.4766 272.459 75.4 271.954 75.4C270.969 75.4 270.236 75.7062 269.706 76.3186C269.175 76.931 268.923 77.824 268.923 78.9723C268.923 80.146 269.175 81.0391 269.706 81.6515C270.236 82.2638 271.019 82.57 272.03 82.57C272.737 82.57 273.444 82.468 274.101 82.2383V79.5846H271.979V78.8447H274.985Z" fill="#2C3336"/>
<path d="M285.972 83.361L285.038 81.1411H280.541L279.582 83.361H278.546L282.31 74.6855H283.168L286.932 83.361H285.972ZM280.895 80.2991H284.684L282.79 75.8338L280.895 80.2991Z" fill="#2C3336"/>
<path d="M296.607 74.6855H297.542V83.361H296.758L291.58 76.3951V83.361H290.646V74.6855H291.403L296.582 81.6514V74.6855H296.607Z" fill="#2C3336"/>
<path d="M302.063 83.361V74.6855H303.049V83.361H302.063Z" fill="#2C3336"/>
<path d="M308.227 82.519H313.254V83.361H307.065V82.621L311.991 75.5276H307.065V74.6855H313.128V75.4255L308.227 82.519Z" fill="#2C3336"/>
<path d="M323.61 83.361L322.675 81.1411H318.179L317.219 83.361H316.184L319.947 74.6855H320.806L324.57 83.361H323.61ZM318.558 80.2991H322.347L320.453 75.8338L318.558 80.2991Z" fill="#2C3336"/>
<path d="M329.395 83.3611V75.5532H326.414V74.7112H333.386V75.5532H330.405V83.3611H329.395Z" fill="#2C3336"/>
<path d="M336.998 83.361V74.6855H337.983V83.361H336.998Z" fill="#2C3336"/>
<path d="M344.045 82.9271C343.464 82.5699 343.009 82.0596 342.681 81.3962C342.353 80.7327 342.201 79.9417 342.201 79.0487C342.201 78.1301 342.353 77.3646 342.681 76.6757C342.984 76.0123 343.439 75.502 344.02 75.1447C344.601 74.7875 345.308 74.6089 346.116 74.6089C346.925 74.6089 347.607 74.7875 348.213 75.1447C348.794 75.502 349.249 76.0123 349.552 76.6757C349.855 77.3391 350.032 78.1301 350.032 79.0232C350.032 79.9417 349.88 80.7072 349.552 81.3962C349.223 82.0596 348.794 82.5699 348.188 82.9271C347.607 83.2843 346.9 83.463 346.116 83.463C345.333 83.463 344.626 83.2843 344.045 82.9271ZM348.238 81.6768C348.744 81.0645 348.996 80.1714 348.996 79.0232C348.996 77.8749 348.744 77.0074 348.238 76.3695C347.733 75.7571 347.026 75.4509 346.116 75.4509C345.207 75.4509 344.5 75.7571 343.995 76.395C343.489 77.0074 343.237 77.9005 343.237 79.0232C343.237 80.1714 343.489 81.0645 343.995 81.6768C344.5 82.3147 345.207 82.6209 346.116 82.6209C347.026 82.5954 347.733 82.2892 348.238 81.6768Z" fill="#2C3336"/>
<path d="M360.187 74.6855H361.122V83.361H360.339L355.16 76.3951V83.361H354.226V74.6855H354.983L360.162 81.6514V74.6855H360.187Z" fill="#2C3336"/>
</g>
<defs>
<clipPath id="clip0">
<rect width="442" height="89" fill="white"/>
</clipPath>
</defs>
</svg>
