<svg width="97" height="90" viewBox="0 0 97 90" fill="none" xmlns="http://www.w3.org/2000/svg">
<path d="M48.0293 43.6155C48.9698 45.449 49.5185 47.8873 49.7144 50.5206C52.2029 48.4139 58.2771 47.2631 63.0777 49.1747C58.0224 49.1747 51.7522 51.886 49.7144 54.7144C49.3421 60.2736 47.4807 65.7743 44.326 67.8419C58.042 69.9876 63.5676 51.808 75.1086 53.2319C70.5235 41.9965 53.9272 39.5972 48.0293 43.6155Z" fill="#6CA448"/>
<path d="M37.253 15.8584C21.0682 17.8675 7.66571 47.4581 19.6378 86.8798C20.5391 89.8837 22.8317 89.5521 26.9269 89.123C49.7738 86.7237 93.5277 82.0423 96.1925 52.3346C97.8776 33.5894 82.9664 20.1692 64.6654 18.9794C64.2343 18.9598 63.8816 18.6478 63.6857 18.2771C60.8837 12.913 50.7927 0 36.9395 0C-3.64018 0 -4.79623 67.3153 6.49006 85.3973C9.11569 89.5911 12.9562 89.123 11.9765 86.3531C1.76785 57.6598 10.6048 8.91425 37.9584 8.91425C46.7171 8.91425 52.7913 14.3369 58.7087 25.5529C58.9439 26.021 59.4533 26.1966 59.9628 26.2551C79.8117 28.8689 87.7082 41.7429 86.4738 52.4517C85.1022 64.4674 76.1084 77.3609 26.1823 82.9006C23.7722 78.1216 18.2466 47.9458 27.1424 33.6674C23.0472 51.0667 27.1424 66.6326 30.5126 72.1332C40.8584 67.9785 44.6989 63.2775 44.6989 52.8223C44.6989 37.4125 30.4734 28.5958 37.253 15.8584Z" fill="#6CA448"/>
</svg>
